%TF.GenerationSoftware,KiCad,Pcbnew,9.0.0*%
%TF.CreationDate,2025-02-26T16:47:42+09:00*%
%TF.ProjectId,TCIS,54434953-2e6b-4696-9361-645f70636258,rev?*%
%TF.SameCoordinates,Original*%
%TF.FileFunction,Copper,L2,Bot*%
%TF.FilePolarity,Positive*%
%FSLAX46Y46*%
G04 Gerber Fmt 4.6, Leading zero omitted, Abs format (unit mm)*
G04 Created by KiCad (PCBNEW 9.0.0) date 2025-02-26 16:47:42*
%MOMM*%
%LPD*%
G01*
G04 APERTURE LIST*
G04 Aperture macros list*
%AMRoundRect*
0 Rectangle with rounded corners*
0 $1 Rounding radius*
0 $2 $3 $4 $5 $6 $7 $8 $9 X,Y pos of 4 corners*
0 Add a 4 corners polygon primitive as box body*
4,1,4,$2,$3,$4,$5,$6,$7,$8,$9,$2,$3,0*
0 Add four circle primitives for the rounded corners*
1,1,$1+$1,$2,$3*
1,1,$1+$1,$4,$5*
1,1,$1+$1,$6,$7*
1,1,$1+$1,$8,$9*
0 Add four rect primitives between the rounded corners*
20,1,$1+$1,$2,$3,$4,$5,0*
20,1,$1+$1,$4,$5,$6,$7,0*
20,1,$1+$1,$6,$7,$8,$9,0*
20,1,$1+$1,$8,$9,$2,$3,0*%
G04 Aperture macros list end*
%TA.AperFunction,ComponentPad*%
%ADD10R,1.700000X1.700000*%
%TD*%
%TA.AperFunction,ComponentPad*%
%ADD11O,1.700000X1.700000*%
%TD*%
%TA.AperFunction,ComponentPad*%
%ADD12RoundRect,0.250000X-0.550000X-0.550000X0.550000X-0.550000X0.550000X0.550000X-0.550000X0.550000X0*%
%TD*%
%TA.AperFunction,ComponentPad*%
%ADD13C,1.600000*%
%TD*%
%TA.AperFunction,ComponentPad*%
%ADD14O,1.600000X1.600000*%
%TD*%
%TA.AperFunction,ViaPad*%
%ADD15C,0.600000*%
%TD*%
%TA.AperFunction,Conductor*%
%ADD16C,1.000000*%
%TD*%
%TA.AperFunction,Conductor*%
%ADD17C,0.200000*%
%TD*%
G04 APERTURE END LIST*
D10*
%TO.P,LS1,1,1*%
%TO.N,Net-(C3-Pad2)*%
X101000000Y-68445000D03*
D11*
%TO.P,LS1,2,2*%
%TO.N,GND*%
X111000000Y-68445000D03*
%TD*%
D12*
%TO.P,U1,1,GND*%
%TO.N,GND*%
X102195000Y-47190000D03*
D13*
%TO.P,U1,2,TR*%
%TO.N,Net-(U1-THR)*%
X102195000Y-49730000D03*
%TO.P,U1,3,Q*%
%TO.N,Net-(U1-Q)*%
X102195000Y-52270000D03*
%TO.P,U1,4,R*%
%TO.N,+9V*%
X102195000Y-54810000D03*
%TO.P,U1,5,CV*%
%TO.N,Net-(U1-CV)*%
X109815000Y-54810000D03*
%TO.P,U1,6,THR*%
%TO.N,Net-(U1-THR)*%
X109815000Y-52270000D03*
%TO.P,U1,7,DIS*%
%TO.N,B*%
X109815000Y-49730000D03*
%TO.P,U1,8,VCC*%
%TO.N,+9V*%
X109815000Y-47190000D03*
%TD*%
%TO.P,C3,1*%
%TO.N,Net-(U1-Q)*%
X97000000Y-53250000D03*
D14*
%TO.P,C3,2*%
%TO.N,Net-(C3-Pad2)*%
X97000000Y-60750000D03*
%TD*%
D13*
%TO.P,R2,1*%
%TO.N,+9V*%
X117000000Y-50920000D03*
D14*
%TO.P,R2,2*%
%TO.N,B*%
X117000000Y-61080000D03*
%TD*%
D13*
%TO.P,C1,1*%
%TO.N,Net-(U1-CV)*%
X113000000Y-53250000D03*
D14*
%TO.P,C1,2*%
%TO.N,GND*%
X113000000Y-60750000D03*
%TD*%
D10*
%TO.P,R3,1*%
%TO.N,A*%
X105000000Y-40000000D03*
D11*
%TO.P,R3,2*%
%TO.N,B*%
X107540000Y-40000000D03*
%TD*%
D13*
%TO.P,R1,1*%
%TO.N,Net-(U1-THR)*%
X114000000Y-50080000D03*
D14*
%TO.P,R1,2*%
%TO.N,A*%
X114000000Y-39920000D03*
%TD*%
D10*
%TO.P,BT1,1,+*%
%TO.N,+9V*%
X98540000Y-32000000D03*
D11*
%TO.P,BT1,2,-*%
%TO.N,GND*%
X96000000Y-32000000D03*
%TD*%
D13*
%TO.P,C2,1*%
%TO.N,Net-(U1-THR)*%
X97000000Y-49750000D03*
D14*
%TO.P,C2,2*%
%TO.N,GND*%
X97000000Y-42250000D03*
%TD*%
D15*
%TO.N,+9V*%
X107000000Y-52000000D03*
%TO.N,B*%
X111000000Y-45000000D03*
%TD*%
D16*
%TO.N,+9V*%
X102385000Y-55000000D02*
X102195000Y-54810000D01*
X107000000Y-52000000D02*
X104190000Y-54810000D01*
X104190000Y-54810000D02*
X102195000Y-54810000D01*
D17*
%TO.N,Net-(U1-THR)*%
X107275000Y-49730000D02*
X109815000Y-52270000D01*
X102195000Y-49730000D02*
X107275000Y-49730000D01*
%TO.N,B*%
X109815000Y-49730000D02*
X111000000Y-48545000D01*
X111000000Y-48545000D02*
X111000000Y-45000000D01*
%TD*%
M02*
