%TF.GenerationSoftware,KiCad,Pcbnew,9.0.0*%
%TF.CreationDate,2025-02-26T16:47:43+09:00*%
%TF.ProjectId,TCIS,54434953-2e6b-4696-9361-645f70636258,rev?*%
%TF.SameCoordinates,Original*%
%TF.FileFunction,Legend,Top*%
%TF.FilePolarity,Positive*%
%FSLAX46Y46*%
G04 Gerber Fmt 4.6, Leading zero omitted, Abs format (unit mm)*
G04 Created by KiCad (PCBNEW 9.0.0) date 2025-02-26 16:47:43*
%MOMM*%
%LPD*%
G01*
G04 APERTURE LIST*
%ADD10C,0.150000*%
%ADD11C,0.200000*%
%ADD12C,0.120000*%
%ADD13C,0.000000*%
%ADD14C,0.010000*%
G04 APERTURE END LIST*
D10*
G36*
X105026948Y-81568876D02*
G01*
X105026948Y-81852264D01*
X105351405Y-81852264D01*
X105351405Y-81971377D01*
X105026948Y-81971377D01*
X105026948Y-82925765D01*
X105036289Y-82981086D01*
X105061826Y-83018291D01*
X105105119Y-83042118D01*
X105173977Y-83051329D01*
X105351405Y-83051329D01*
X105351405Y-83154560D01*
X104555461Y-83154560D01*
X104555461Y-83051329D01*
X104666385Y-83051329D01*
X104730030Y-83044801D01*
X104766265Y-83028995D01*
X104788217Y-82999992D01*
X104796788Y-82948098D01*
X104796788Y-81971377D01*
X104572087Y-81971377D01*
X104572087Y-81852264D01*
X104796788Y-81852264D01*
X104796788Y-81755486D01*
X104806682Y-81588887D01*
X104834269Y-81449989D01*
X104877147Y-81334378D01*
X104934015Y-81238340D01*
X105009851Y-81154540D01*
X105094055Y-81096809D01*
X105188400Y-81062162D01*
X105295943Y-81050241D01*
X105395098Y-81059468D01*
X105474119Y-81085031D01*
X105537270Y-81125307D01*
X105586183Y-81180546D01*
X105615653Y-81246927D01*
X105625983Y-81327922D01*
X105615570Y-81402400D01*
X105587148Y-81455720D01*
X105541588Y-81490682D01*
X105478954Y-81502868D01*
X105424994Y-81493709D01*
X105381927Y-81467135D01*
X105353259Y-81425604D01*
X105343092Y-81368122D01*
X105350625Y-81323665D01*
X105373614Y-81282759D01*
X105431930Y-81227793D01*
X105434659Y-81216750D01*
X105426645Y-81194992D01*
X105397188Y-81172704D01*
X105357185Y-81158558D01*
X105306986Y-81153472D01*
X105227425Y-81165469D01*
X105160590Y-81200489D01*
X105103130Y-81260797D01*
X105063228Y-81336292D01*
X105036782Y-81436680D01*
X105026948Y-81568876D01*
G37*
G36*
X106276813Y-81824915D02*
G01*
X106391832Y-81860795D01*
X106495488Y-81919994D01*
X106589801Y-82004381D01*
X106665181Y-82104928D01*
X106719885Y-82220313D01*
X106754005Y-82353332D01*
X106765988Y-82507631D01*
X106753834Y-82658621D01*
X106719114Y-82789439D01*
X106663193Y-82903614D01*
X106585706Y-83003808D01*
X106489382Y-83087956D01*
X106385153Y-83146724D01*
X106271170Y-83182139D01*
X106144743Y-83194264D01*
X106018431Y-83181898D01*
X105905774Y-83145912D01*
X105803857Y-83086341D01*
X105710727Y-83001078D01*
X105636284Y-82899963D01*
X105582473Y-82785350D01*
X105549070Y-82654716D01*
X105537394Y-82504777D01*
X105538457Y-82491004D01*
X105792493Y-82491004D01*
X105804639Y-82687530D01*
X105836766Y-82833080D01*
X105883936Y-82938917D01*
X105936073Y-83006628D01*
X105996600Y-83053165D01*
X106067030Y-83081255D01*
X106150326Y-83091033D01*
X106233382Y-83081149D01*
X106303974Y-83052672D01*
X106365013Y-83005324D01*
X106417957Y-82936187D01*
X106466029Y-82828520D01*
X106498615Y-82681873D01*
X106510889Y-82485421D01*
X106498314Y-82300637D01*
X106464837Y-82162591D01*
X106415103Y-82060959D01*
X106361468Y-81996471D01*
X106300167Y-81951976D01*
X106229728Y-81925113D01*
X106147472Y-81915791D01*
X106066930Y-81925227D01*
X105997991Y-81952465D01*
X105937957Y-81997768D01*
X105885425Y-82063813D01*
X105837149Y-82166931D01*
X105804669Y-82306024D01*
X105792493Y-82491004D01*
X105538457Y-82491004D01*
X105548970Y-82354853D01*
X105582106Y-82223977D01*
X105635504Y-82108931D01*
X105709362Y-82007235D01*
X105801880Y-81921581D01*
X105904178Y-81861539D01*
X106018338Y-81825122D01*
X106147472Y-81812560D01*
X106276813Y-81824915D01*
G37*
G36*
X106859541Y-81955495D02*
G01*
X106859541Y-81858096D01*
X107325444Y-81836383D01*
X107325444Y-82360477D01*
X107385480Y-82186779D01*
X107446828Y-82058540D01*
X107508455Y-81966786D01*
X107586017Y-81893130D01*
X107671790Y-81850701D01*
X107769261Y-81836383D01*
X107836716Y-81844106D01*
X107891692Y-81865937D01*
X107937011Y-81901522D01*
X107970720Y-81948399D01*
X107991840Y-82006825D01*
X107999421Y-82080067D01*
X107988552Y-82152143D01*
X107957856Y-82207492D01*
X107910219Y-82244718D01*
X107849662Y-82257246D01*
X107794098Y-82246239D01*
X107751146Y-82213944D01*
X107723624Y-82165458D01*
X107713800Y-82100787D01*
X107718439Y-82061835D01*
X107733155Y-82019766D01*
X107752635Y-81969516D01*
X107741468Y-81958349D01*
X107727572Y-81955495D01*
X107676546Y-81966041D01*
X107620962Y-82001146D01*
X107557768Y-82070225D01*
X107485005Y-82187144D01*
X107416144Y-82345301D01*
X107375248Y-82507815D01*
X107361550Y-82676745D01*
X107361550Y-82954178D01*
X107369788Y-82994728D01*
X107393495Y-83023639D01*
X107436533Y-83043390D01*
X107508579Y-83051329D01*
X107674964Y-83051329D01*
X107674964Y-83154560D01*
X106867854Y-83154560D01*
X106867854Y-83051329D01*
X106995403Y-83051329D01*
X107077893Y-83038983D01*
X107118165Y-83009260D01*
X107131390Y-82962491D01*
X107131390Y-82135777D01*
X107119928Y-82051756D01*
X107090149Y-81998642D01*
X107043334Y-81967093D01*
X106973318Y-81955495D01*
X106859541Y-81955495D01*
G37*
G36*
X109211265Y-81878320D02*
G01*
X109258414Y-81105827D01*
X110922389Y-81105827D01*
X110961224Y-81881050D01*
X110864197Y-81881050D01*
X110823802Y-81665920D01*
X110770630Y-81503601D01*
X110707837Y-81383830D01*
X110637171Y-81298036D01*
X110558734Y-81239743D01*
X110470900Y-81205073D01*
X110370501Y-81193176D01*
X110304655Y-81200802D01*
X110266526Y-81219604D01*
X110243775Y-81253351D01*
X110234639Y-81315266D01*
X110234639Y-82954302D01*
X110247604Y-83007256D01*
X110284772Y-83038833D01*
X110356605Y-83051329D01*
X110564679Y-83051329D01*
X110564679Y-83154560D01*
X109610540Y-83154560D01*
X109610540Y-83051329D01*
X109846283Y-83051329D01*
X109900620Y-83040839D01*
X109929936Y-83013360D01*
X109940580Y-82965220D01*
X109940580Y-81298764D01*
X109932420Y-81252936D01*
X109909798Y-81221609D01*
X109870697Y-81201170D01*
X109807571Y-81193176D01*
X109709589Y-81204888D01*
X109623245Y-81239136D01*
X109545520Y-81296931D01*
X109474865Y-81382251D01*
X109411379Y-81501608D01*
X109356720Y-81663560D01*
X109313876Y-81878320D01*
X109211265Y-81878320D01*
G37*
G36*
X112666764Y-82445221D02*
G01*
X112766645Y-82445221D01*
X112733475Y-82622358D01*
X112680458Y-82771596D01*
X112609154Y-82897224D01*
X112519735Y-83002567D01*
X112411372Y-83088928D01*
X112289349Y-83150780D01*
X112151017Y-83188920D01*
X111992787Y-83202204D01*
X111834747Y-83190214D01*
X111690605Y-83155257D01*
X111557960Y-83097909D01*
X111434912Y-83017467D01*
X111320174Y-82911992D01*
X111223871Y-82791264D01*
X111149055Y-82659287D01*
X111094848Y-82514474D01*
X111061386Y-82354715D01*
X111049814Y-82177466D01*
X111061244Y-81988636D01*
X111094394Y-81816778D01*
X111148169Y-81659587D01*
X111222318Y-81515099D01*
X111317445Y-81381771D01*
X111433122Y-81261965D01*
X111555073Y-81172142D01*
X111684428Y-81109083D01*
X111823052Y-81071109D01*
X111973431Y-81058182D01*
X112108716Y-81071111D01*
X112234113Y-81109301D01*
X112355631Y-81171170D01*
X112494796Y-81265760D01*
X112591947Y-81066123D01*
X112680661Y-81066123D01*
X112713913Y-81893209D01*
X112622469Y-81893209D01*
X112551884Y-81670795D01*
X112473207Y-81500722D01*
X112388344Y-81373630D01*
X112298100Y-81281709D01*
X112202034Y-81219031D01*
X112098435Y-81181935D01*
X111984474Y-81169354D01*
X111855935Y-81183031D01*
X111747036Y-81222143D01*
X111653425Y-81286282D01*
X111572561Y-81378318D01*
X111504042Y-81504053D01*
X111449616Y-81671693D01*
X111412955Y-81891355D01*
X111399334Y-82174736D01*
X111411520Y-82403029D01*
X111444923Y-82587167D01*
X111495726Y-82734625D01*
X111561501Y-82851816D01*
X111632405Y-82935561D01*
X111712486Y-82999318D01*
X111802883Y-83045032D01*
X111905591Y-83073253D01*
X112023309Y-83083092D01*
X112172433Y-83069660D01*
X112297270Y-83031715D01*
X112402586Y-82970907D01*
X112491676Y-82886303D01*
X112566033Y-82774490D01*
X112625185Y-82629902D01*
X112666764Y-82445221D01*
G37*
G36*
X112875459Y-81209058D02*
G01*
X112875459Y-81105827D01*
X113821161Y-81105827D01*
X113821161Y-81209058D01*
X113660360Y-81209058D01*
X113560985Y-81217735D01*
X113523008Y-81235486D01*
X113504861Y-81270627D01*
X113496704Y-81348022D01*
X113496704Y-82904051D01*
X113500110Y-82965863D01*
X113507871Y-82998473D01*
X113528706Y-83025106D01*
X113569428Y-83043690D01*
X113641004Y-83051329D01*
X113821161Y-83051329D01*
X113821161Y-83154560D01*
X112875459Y-83154560D01*
X112875459Y-83051329D01*
X113055740Y-83051329D01*
X113140410Y-83042626D01*
X113177707Y-83023536D01*
X113196860Y-82986434D01*
X113205499Y-82904051D01*
X113205499Y-81348022D01*
X113197555Y-81271139D01*
X113180560Y-81239580D01*
X113136355Y-81218653D01*
X113036385Y-81209058D01*
X112875459Y-81209058D01*
G37*
G36*
X113918436Y-82381074D02*
G01*
X114018317Y-82381074D01*
X114056729Y-82539209D01*
X114112404Y-82676092D01*
X114184565Y-82794610D01*
X114273416Y-82896979D01*
X114379431Y-82983321D01*
X114490768Y-83043207D01*
X114609090Y-83078936D01*
X114736714Y-83091033D01*
X114866983Y-83076892D01*
X114976393Y-83036553D01*
X115069484Y-82970556D01*
X115142631Y-82883430D01*
X115185380Y-82787208D01*
X115199887Y-82678358D01*
X115189191Y-82591810D01*
X115158034Y-82516606D01*
X115105590Y-82449935D01*
X115037777Y-82396377D01*
X114950397Y-82352172D01*
X114839324Y-82318292D01*
X114518833Y-82240433D01*
X114348358Y-82188136D01*
X114209592Y-82127904D01*
X114112899Y-82066783D01*
X114048840Y-82005373D01*
X113995502Y-81918825D01*
X113961358Y-81809188D01*
X113948959Y-81670246D01*
X113960211Y-81541473D01*
X113992744Y-81427347D01*
X114045961Y-81325108D01*
X114120927Y-81232756D01*
X114212233Y-81156650D01*
X114313741Y-81102651D01*
X114427514Y-81069621D01*
X114556432Y-81058182D01*
X114695647Y-81070686D01*
X114815625Y-81106447D01*
X114928057Y-81165553D01*
X115047274Y-81254345D01*
X115174824Y-81074064D01*
X115274704Y-81074064D01*
X115283017Y-81832164D01*
X115191574Y-81832164D01*
X115130061Y-81633931D01*
X115057698Y-81480435D01*
X114976346Y-81363858D01*
X114886624Y-81277876D01*
X114787811Y-81217981D01*
X114677880Y-81181809D01*
X114553702Y-81169354D01*
X114434089Y-81182254D01*
X114334275Y-81218945D01*
X114249966Y-81278788D01*
X114183822Y-81357868D01*
X114145192Y-81444989D01*
X114132094Y-81543317D01*
X114144757Y-81643588D01*
X114180758Y-81725207D01*
X114240288Y-81792584D01*
X114303543Y-81831646D01*
X114433590Y-81881101D01*
X114665991Y-81942219D01*
X114895365Y-82002038D01*
X115051765Y-82057621D01*
X115152738Y-82108356D01*
X115241867Y-82175130D01*
X115309093Y-82251317D01*
X115356994Y-82337926D01*
X115386497Y-82437023D01*
X115396794Y-82551553D01*
X115384671Y-82686930D01*
X115349596Y-82806873D01*
X115292121Y-82914356D01*
X115210930Y-83011501D01*
X115112740Y-83090274D01*
X115001007Y-83146915D01*
X114873118Y-83181996D01*
X114725547Y-83194264D01*
X114572575Y-83181146D01*
X114431147Y-83142567D01*
X114298796Y-83078444D01*
X114173660Y-82987058D01*
X114018317Y-83178382D01*
X113918436Y-83178382D01*
X113918436Y-82381074D01*
G37*
X105243095Y-47454819D02*
X105243095Y-48264342D01*
X105243095Y-48264342D02*
X105290714Y-48359580D01*
X105290714Y-48359580D02*
X105338333Y-48407200D01*
X105338333Y-48407200D02*
X105433571Y-48454819D01*
X105433571Y-48454819D02*
X105624047Y-48454819D01*
X105624047Y-48454819D02*
X105719285Y-48407200D01*
X105719285Y-48407200D02*
X105766904Y-48359580D01*
X105766904Y-48359580D02*
X105814523Y-48264342D01*
X105814523Y-48264342D02*
X105814523Y-47454819D01*
X106814523Y-48454819D02*
X106243095Y-48454819D01*
X106528809Y-48454819D02*
X106528809Y-47454819D01*
X106528809Y-47454819D02*
X106433571Y-47597676D01*
X106433571Y-47597676D02*
X106338333Y-47692914D01*
X106338333Y-47692914D02*
X106243095Y-47740533D01*
X97359580Y-57166666D02*
X97407200Y-57214285D01*
X97407200Y-57214285D02*
X97454819Y-57357142D01*
X97454819Y-57357142D02*
X97454819Y-57452380D01*
X97454819Y-57452380D02*
X97407200Y-57595237D01*
X97407200Y-57595237D02*
X97311961Y-57690475D01*
X97311961Y-57690475D02*
X97216723Y-57738094D01*
X97216723Y-57738094D02*
X97026247Y-57785713D01*
X97026247Y-57785713D02*
X96883390Y-57785713D01*
X96883390Y-57785713D02*
X96692914Y-57738094D01*
X96692914Y-57738094D02*
X96597676Y-57690475D01*
X96597676Y-57690475D02*
X96502438Y-57595237D01*
X96502438Y-57595237D02*
X96454819Y-57452380D01*
X96454819Y-57452380D02*
X96454819Y-57357142D01*
X96454819Y-57357142D02*
X96502438Y-57214285D01*
X96502438Y-57214285D02*
X96550057Y-57166666D01*
X96454819Y-56833332D02*
X96454819Y-56214285D01*
X96454819Y-56214285D02*
X96835771Y-56547618D01*
X96835771Y-56547618D02*
X96835771Y-56404761D01*
X96835771Y-56404761D02*
X96883390Y-56309523D01*
X96883390Y-56309523D02*
X96931009Y-56261904D01*
X96931009Y-56261904D02*
X97026247Y-56214285D01*
X97026247Y-56214285D02*
X97264342Y-56214285D01*
X97264342Y-56214285D02*
X97359580Y-56261904D01*
X97359580Y-56261904D02*
X97407200Y-56309523D01*
X97407200Y-56309523D02*
X97454819Y-56404761D01*
X97454819Y-56404761D02*
X97454819Y-56690475D01*
X97454819Y-56690475D02*
X97407200Y-56785713D01*
X97407200Y-56785713D02*
X97359580Y-56833332D01*
X117454819Y-56166666D02*
X116978628Y-56499999D01*
X117454819Y-56738094D02*
X116454819Y-56738094D01*
X116454819Y-56738094D02*
X116454819Y-56357142D01*
X116454819Y-56357142D02*
X116502438Y-56261904D01*
X116502438Y-56261904D02*
X116550057Y-56214285D01*
X116550057Y-56214285D02*
X116645295Y-56166666D01*
X116645295Y-56166666D02*
X116788152Y-56166666D01*
X116788152Y-56166666D02*
X116883390Y-56214285D01*
X116883390Y-56214285D02*
X116931009Y-56261904D01*
X116931009Y-56261904D02*
X116978628Y-56357142D01*
X116978628Y-56357142D02*
X116978628Y-56738094D01*
X116550057Y-55785713D02*
X116502438Y-55738094D01*
X116502438Y-55738094D02*
X116454819Y-55642856D01*
X116454819Y-55642856D02*
X116454819Y-55404761D01*
X116454819Y-55404761D02*
X116502438Y-55309523D01*
X116502438Y-55309523D02*
X116550057Y-55261904D01*
X116550057Y-55261904D02*
X116645295Y-55214285D01*
X116645295Y-55214285D02*
X116740533Y-55214285D01*
X116740533Y-55214285D02*
X116883390Y-55261904D01*
X116883390Y-55261904D02*
X117454819Y-55833332D01*
X117454819Y-55833332D02*
X117454819Y-55214285D01*
X113359580Y-57166666D02*
X113407200Y-57214285D01*
X113407200Y-57214285D02*
X113454819Y-57357142D01*
X113454819Y-57357142D02*
X113454819Y-57452380D01*
X113454819Y-57452380D02*
X113407200Y-57595237D01*
X113407200Y-57595237D02*
X113311961Y-57690475D01*
X113311961Y-57690475D02*
X113216723Y-57738094D01*
X113216723Y-57738094D02*
X113026247Y-57785713D01*
X113026247Y-57785713D02*
X112883390Y-57785713D01*
X112883390Y-57785713D02*
X112692914Y-57738094D01*
X112692914Y-57738094D02*
X112597676Y-57690475D01*
X112597676Y-57690475D02*
X112502438Y-57595237D01*
X112502438Y-57595237D02*
X112454819Y-57452380D01*
X112454819Y-57452380D02*
X112454819Y-57357142D01*
X112454819Y-57357142D02*
X112502438Y-57214285D01*
X112502438Y-57214285D02*
X112550057Y-57166666D01*
X113454819Y-56214285D02*
X113454819Y-56785713D01*
X113454819Y-56499999D02*
X112454819Y-56499999D01*
X112454819Y-56499999D02*
X112597676Y-56595237D01*
X112597676Y-56595237D02*
X112692914Y-56690475D01*
X112692914Y-56690475D02*
X112740533Y-56785713D01*
X105454819Y-37166666D02*
X104978628Y-37499999D01*
X105454819Y-37738094D02*
X104454819Y-37738094D01*
X104454819Y-37738094D02*
X104454819Y-37357142D01*
X104454819Y-37357142D02*
X104502438Y-37261904D01*
X104502438Y-37261904D02*
X104550057Y-37214285D01*
X104550057Y-37214285D02*
X104645295Y-37166666D01*
X104645295Y-37166666D02*
X104788152Y-37166666D01*
X104788152Y-37166666D02*
X104883390Y-37214285D01*
X104883390Y-37214285D02*
X104931009Y-37261904D01*
X104931009Y-37261904D02*
X104978628Y-37357142D01*
X104978628Y-37357142D02*
X104978628Y-37738094D01*
X104454819Y-36833332D02*
X104454819Y-36214285D01*
X104454819Y-36214285D02*
X104835771Y-36547618D01*
X104835771Y-36547618D02*
X104835771Y-36404761D01*
X104835771Y-36404761D02*
X104883390Y-36309523D01*
X104883390Y-36309523D02*
X104931009Y-36261904D01*
X104931009Y-36261904D02*
X105026247Y-36214285D01*
X105026247Y-36214285D02*
X105264342Y-36214285D01*
X105264342Y-36214285D02*
X105359580Y-36261904D01*
X105359580Y-36261904D02*
X105407200Y-36309523D01*
X105407200Y-36309523D02*
X105454819Y-36404761D01*
X105454819Y-36404761D02*
X105454819Y-36690475D01*
X105454819Y-36690475D02*
X105407200Y-36785713D01*
X105407200Y-36785713D02*
X105359580Y-36833332D01*
X114454819Y-45166666D02*
X113978628Y-45499999D01*
X114454819Y-45738094D02*
X113454819Y-45738094D01*
X113454819Y-45738094D02*
X113454819Y-45357142D01*
X113454819Y-45357142D02*
X113502438Y-45261904D01*
X113502438Y-45261904D02*
X113550057Y-45214285D01*
X113550057Y-45214285D02*
X113645295Y-45166666D01*
X113645295Y-45166666D02*
X113788152Y-45166666D01*
X113788152Y-45166666D02*
X113883390Y-45214285D01*
X113883390Y-45214285D02*
X113931009Y-45261904D01*
X113931009Y-45261904D02*
X113978628Y-45357142D01*
X113978628Y-45357142D02*
X113978628Y-45738094D01*
X114454819Y-44214285D02*
X114454819Y-44785713D01*
X114454819Y-44499999D02*
X113454819Y-44499999D01*
X113454819Y-44499999D02*
X113597676Y-44595237D01*
X113597676Y-44595237D02*
X113692914Y-44690475D01*
X113692914Y-44690475D02*
X113740533Y-44785713D01*
X100931009Y-32785714D02*
X100978628Y-32642857D01*
X100978628Y-32642857D02*
X101026247Y-32595238D01*
X101026247Y-32595238D02*
X101121485Y-32547619D01*
X101121485Y-32547619D02*
X101264342Y-32547619D01*
X101264342Y-32547619D02*
X101359580Y-32595238D01*
X101359580Y-32595238D02*
X101407200Y-32642857D01*
X101407200Y-32642857D02*
X101454819Y-32738095D01*
X101454819Y-32738095D02*
X101454819Y-33119047D01*
X101454819Y-33119047D02*
X100454819Y-33119047D01*
X100454819Y-33119047D02*
X100454819Y-32785714D01*
X100454819Y-32785714D02*
X100502438Y-32690476D01*
X100502438Y-32690476D02*
X100550057Y-32642857D01*
X100550057Y-32642857D02*
X100645295Y-32595238D01*
X100645295Y-32595238D02*
X100740533Y-32595238D01*
X100740533Y-32595238D02*
X100835771Y-32642857D01*
X100835771Y-32642857D02*
X100883390Y-32690476D01*
X100883390Y-32690476D02*
X100931009Y-32785714D01*
X100931009Y-32785714D02*
X100931009Y-33119047D01*
X100454819Y-32261904D02*
X100454819Y-31690476D01*
X101454819Y-31976190D02*
X100454819Y-31976190D01*
X101454819Y-30833333D02*
X101454819Y-31404761D01*
X101454819Y-31119047D02*
X100454819Y-31119047D01*
X100454819Y-31119047D02*
X100597676Y-31214285D01*
X100597676Y-31214285D02*
X100692914Y-31309523D01*
X100692914Y-31309523D02*
X100740533Y-31404761D01*
X97359580Y-46166666D02*
X97407200Y-46214285D01*
X97407200Y-46214285D02*
X97454819Y-46357142D01*
X97454819Y-46357142D02*
X97454819Y-46452380D01*
X97454819Y-46452380D02*
X97407200Y-46595237D01*
X97407200Y-46595237D02*
X97311961Y-46690475D01*
X97311961Y-46690475D02*
X97216723Y-46738094D01*
X97216723Y-46738094D02*
X97026247Y-46785713D01*
X97026247Y-46785713D02*
X96883390Y-46785713D01*
X96883390Y-46785713D02*
X96692914Y-46738094D01*
X96692914Y-46738094D02*
X96597676Y-46690475D01*
X96597676Y-46690475D02*
X96502438Y-46595237D01*
X96502438Y-46595237D02*
X96454819Y-46452380D01*
X96454819Y-46452380D02*
X96454819Y-46357142D01*
X96454819Y-46357142D02*
X96502438Y-46214285D01*
X96502438Y-46214285D02*
X96550057Y-46166666D01*
X96550057Y-45785713D02*
X96502438Y-45738094D01*
X96502438Y-45738094D02*
X96454819Y-45642856D01*
X96454819Y-45642856D02*
X96454819Y-45404761D01*
X96454819Y-45404761D02*
X96502438Y-45309523D01*
X96502438Y-45309523D02*
X96550057Y-45261904D01*
X96550057Y-45261904D02*
X96645295Y-45214285D01*
X96645295Y-45214285D02*
X96740533Y-45214285D01*
X96740533Y-45214285D02*
X96883390Y-45261904D01*
X96883390Y-45261904D02*
X97454819Y-45833332D01*
X97454819Y-45833332D02*
X97454819Y-45214285D01*
D11*
%TO.C,LS1*%
X114620000Y-68445000D02*
G75*
G02*
X97620000Y-68445000I-8500000J0D01*
G01*
X97620000Y-68445000D02*
G75*
G02*
X114620000Y-68445000I8500000J0D01*
G01*
D12*
%TO.C,U1*%
X103355000Y-45860000D02*
X103355000Y-56140000D01*
X103355000Y-56140000D02*
X108655000Y-56140000D01*
X105005000Y-45860000D02*
X103355000Y-45860000D01*
X108655000Y-45860000D02*
X107005000Y-45860000D01*
X108655000Y-56140000D02*
X108655000Y-45860000D01*
X107005000Y-45860000D02*
G75*
G02*
X105005000Y-45860000I-1000000J0D01*
G01*
D13*
%TO.C,G\u002A\u002A\u002A*%
G36*
X105553680Y-79483640D02*
G01*
X105641048Y-79505507D01*
X105671289Y-79520796D01*
X105732307Y-79579354D01*
X105775640Y-79661299D01*
X105794989Y-79751672D01*
X105791862Y-79807108D01*
X105756228Y-79900120D01*
X105693214Y-79972442D01*
X105611188Y-80020267D01*
X105518524Y-80039788D01*
X105423592Y-80027197D01*
X105365970Y-80000809D01*
X105297558Y-79938072D01*
X105255976Y-79856020D01*
X105240946Y-79764044D01*
X105252192Y-79671537D01*
X105289436Y-79587890D01*
X105352399Y-79522494D01*
X105380600Y-79505586D01*
X105460509Y-79483334D01*
X105553680Y-79483640D01*
G37*
G36*
X105623660Y-78275926D02*
G01*
X105703406Y-78323478D01*
X105759947Y-78403501D01*
X105770086Y-78427444D01*
X105792093Y-78532001D01*
X105779672Y-78627517D01*
X105738198Y-78708921D01*
X105673046Y-78771142D01*
X105589591Y-78809110D01*
X105493206Y-78817754D01*
X105389267Y-78792006D01*
X105385393Y-78790348D01*
X105314366Y-78739305D01*
X105265614Y-78663676D01*
X105241600Y-78573621D01*
X105244782Y-78479303D01*
X105277623Y-78390881D01*
X105285600Y-78378249D01*
X105347246Y-78309300D01*
X105422608Y-78271713D01*
X105520000Y-78260369D01*
X105623660Y-78275926D01*
G37*
G36*
X106694478Y-78279170D02*
G01*
X106721877Y-78290970D01*
X106793861Y-78348437D01*
X106839067Y-78426434D01*
X106857553Y-78515829D01*
X106849377Y-78607489D01*
X106814597Y-78692282D01*
X106753271Y-78761074D01*
X106718766Y-78783454D01*
X106633446Y-78812062D01*
X106540390Y-78816833D01*
X106470000Y-78800919D01*
X106401840Y-78753713D01*
X106345479Y-78679944D01*
X106309150Y-78592888D01*
X106300000Y-78526720D01*
X106316316Y-78446367D01*
X106358569Y-78366671D01*
X106416712Y-78305549D01*
X106428399Y-78297713D01*
X106508991Y-78268170D01*
X106603877Y-78261847D01*
X106694478Y-78279170D01*
G37*
G36*
X106694478Y-79499170D02*
G01*
X106721877Y-79510970D01*
X106793861Y-79568437D01*
X106839067Y-79646434D01*
X106857553Y-79735829D01*
X106849377Y-79827489D01*
X106814597Y-79912282D01*
X106753271Y-79981074D01*
X106718766Y-80003454D01*
X106633446Y-80032062D01*
X106540390Y-80036833D01*
X106470000Y-80020919D01*
X106401840Y-79973713D01*
X106345479Y-79899944D01*
X106309150Y-79812888D01*
X106300000Y-79746720D01*
X106316316Y-79666367D01*
X106358569Y-79586671D01*
X106416712Y-79525549D01*
X106428399Y-79517713D01*
X106508991Y-79488170D01*
X106603877Y-79481847D01*
X106694478Y-79499170D01*
G37*
D12*
%TO.C,C3*%
X95580000Y-54980000D02*
X95580000Y-59020000D01*
X95580000Y-59020000D02*
X98420000Y-59020000D01*
X97000000Y-54290000D02*
X97000000Y-54980000D01*
X97000000Y-59710000D02*
X97000000Y-59020000D01*
X98420000Y-54980000D02*
X95580000Y-54980000D01*
X98420000Y-59020000D02*
X98420000Y-54980000D01*
%TO.C,R2*%
X115630000Y-52730000D02*
X115630000Y-59270000D01*
X115630000Y-59270000D02*
X118370000Y-59270000D01*
X117000000Y-51960000D02*
X117000000Y-52730000D01*
X117000000Y-60040000D02*
X117000000Y-59270000D01*
X118370000Y-52730000D02*
X115630000Y-52730000D01*
X118370000Y-59270000D02*
X118370000Y-52730000D01*
%TO.C,C1*%
X111580000Y-54980000D02*
X111580000Y-59020000D01*
X111580000Y-59020000D02*
X114420000Y-59020000D01*
X113000000Y-54290000D02*
X113000000Y-54980000D01*
X113000000Y-59710000D02*
X113000000Y-59020000D01*
X114420000Y-54980000D02*
X111580000Y-54980000D01*
X114420000Y-59020000D02*
X114420000Y-54980000D01*
%TO.C,R3*%
X103670000Y-35900000D02*
X103670000Y-38560000D01*
X103670000Y-38560000D02*
X108870000Y-38560000D01*
X103730000Y-41270000D02*
X103730000Y-40000000D01*
X104620000Y-29900000D02*
X105380000Y-29900000D01*
X104620000Y-35900000D02*
X104620000Y-29900000D01*
X104620000Y-38890000D02*
X104620000Y-38560000D01*
X104680000Y-35900000D02*
X104680000Y-29900000D01*
X104800000Y-35900000D02*
X104800000Y-29900000D01*
X104920000Y-35900000D02*
X104920000Y-29900000D01*
X105000000Y-41270000D02*
X103730000Y-41270000D01*
X105040000Y-35900000D02*
X105040000Y-29900000D01*
X105160000Y-35900000D02*
X105160000Y-29900000D01*
X105280000Y-35900000D02*
X105280000Y-29900000D01*
X105380000Y-29900000D02*
X105380000Y-35900000D01*
X105380000Y-38890000D02*
X105380000Y-38560000D01*
X106270000Y-38560000D02*
X106270000Y-35900000D01*
X107160000Y-29900000D02*
X107920000Y-29900000D01*
X107160000Y-35900000D02*
X107160000Y-29900000D01*
X107160000Y-38957071D02*
X107160000Y-38560000D01*
X107920000Y-29900000D02*
X107920000Y-35900000D01*
X107920000Y-38957071D02*
X107920000Y-38560000D01*
X108870000Y-35900000D02*
X103670000Y-35900000D01*
X108870000Y-38560000D02*
X108870000Y-35900000D01*
D14*
%TO.C,REF\u002A\u002A*%
X119152600Y-34958752D02*
X119169948Y-34966334D01*
X119211356Y-34999128D01*
X119246765Y-35046547D01*
X119268664Y-35097151D01*
X119272229Y-35122098D01*
X119260279Y-35156927D01*
X119234067Y-35175357D01*
X119205964Y-35186516D01*
X119193095Y-35188572D01*
X119186829Y-35173649D01*
X119174456Y-35141175D01*
X119169028Y-35126502D01*
X119138590Y-35075744D01*
X119094520Y-35050427D01*
X119038010Y-35051206D01*
X119033825Y-35052203D01*
X119003655Y-35066507D01*
X118981476Y-35094393D01*
X118966327Y-35139287D01*
X118957250Y-35204615D01*
X118953286Y-35293804D01*
X118952914Y-35341261D01*
X118952730Y-35416071D01*
X118951522Y-35467069D01*
X118948309Y-35499471D01*
X118942109Y-35518495D01*
X118931940Y-35529356D01*
X118916819Y-35537272D01*
X118915946Y-35537670D01*
X118886828Y-35549981D01*
X118872403Y-35554514D01*
X118870186Y-35540809D01*
X118868289Y-35502925D01*
X118866847Y-35445715D01*
X118865998Y-35374027D01*
X118865829Y-35321565D01*
X118866692Y-35220047D01*
X118870070Y-35143032D01*
X118877142Y-35086023D01*
X118889088Y-35044526D01*
X118907090Y-35014043D01*
X118932327Y-34990080D01*
X118957247Y-34973355D01*
X119017171Y-34951097D01*
X119086911Y-34946076D01*
X119152600Y-34958752D01*
G36*
X119152600Y-34958752D02*
G01*
X119169948Y-34966334D01*
X119211356Y-34999128D01*
X119246765Y-35046547D01*
X119268664Y-35097151D01*
X119272229Y-35122098D01*
X119260279Y-35156927D01*
X119234067Y-35175357D01*
X119205964Y-35186516D01*
X119193095Y-35188572D01*
X119186829Y-35173649D01*
X119174456Y-35141175D01*
X119169028Y-35126502D01*
X119138590Y-35075744D01*
X119094520Y-35050427D01*
X119038010Y-35051206D01*
X119033825Y-35052203D01*
X119003655Y-35066507D01*
X118981476Y-35094393D01*
X118966327Y-35139287D01*
X118957250Y-35204615D01*
X118953286Y-35293804D01*
X118952914Y-35341261D01*
X118952730Y-35416071D01*
X118951522Y-35467069D01*
X118948309Y-35499471D01*
X118942109Y-35518495D01*
X118931940Y-35529356D01*
X118916819Y-35537272D01*
X118915946Y-35537670D01*
X118886828Y-35549981D01*
X118872403Y-35554514D01*
X118870186Y-35540809D01*
X118868289Y-35502925D01*
X118866847Y-35445715D01*
X118865998Y-35374027D01*
X118865829Y-35321565D01*
X118866692Y-35220047D01*
X118870070Y-35143032D01*
X118877142Y-35086023D01*
X118889088Y-35044526D01*
X118907090Y-35014043D01*
X118932327Y-34990080D01*
X118957247Y-34973355D01*
X119017171Y-34951097D01*
X119086911Y-34946076D01*
X119152600Y-34958752D01*
G37*
X115216093Y-34927780D02*
X115262672Y-34954723D01*
X115295057Y-34981466D01*
X115318742Y-35009484D01*
X115335059Y-35043748D01*
X115345339Y-35089227D01*
X115350914Y-35150892D01*
X115353116Y-35233711D01*
X115353371Y-35293246D01*
X115353371Y-35512391D01*
X115291686Y-35540044D01*
X115230000Y-35567697D01*
X115222743Y-35327670D01*
X115219744Y-35238028D01*
X115216598Y-35172962D01*
X115212701Y-35128026D01*
X115207447Y-35098770D01*
X115200231Y-35080748D01*
X115190450Y-35069511D01*
X115187312Y-35067079D01*
X115139761Y-35048083D01*
X115091697Y-35055600D01*
X115063086Y-35075543D01*
X115051447Y-35089675D01*
X115043391Y-35108220D01*
X115038271Y-35136334D01*
X115035441Y-35179173D01*
X115034256Y-35241895D01*
X115034057Y-35307261D01*
X115034018Y-35389268D01*
X115032614Y-35447316D01*
X115027914Y-35486465D01*
X115017987Y-35511780D01*
X115000903Y-35528323D01*
X114974732Y-35541156D01*
X114939775Y-35554491D01*
X114901596Y-35569007D01*
X114906141Y-35311389D01*
X114907971Y-35218519D01*
X114910112Y-35149889D01*
X114913181Y-35100711D01*
X114917794Y-35066198D01*
X114924568Y-35041562D01*
X114934119Y-35022016D01*
X114945634Y-35004770D01*
X115001190Y-34949680D01*
X115068980Y-34917822D01*
X115142713Y-34910191D01*
X115216093Y-34927780D01*
G36*
X115216093Y-34927780D02*
G01*
X115262672Y-34954723D01*
X115295057Y-34981466D01*
X115318742Y-35009484D01*
X115335059Y-35043748D01*
X115345339Y-35089227D01*
X115350914Y-35150892D01*
X115353116Y-35233711D01*
X115353371Y-35293246D01*
X115353371Y-35512391D01*
X115291686Y-35540044D01*
X115230000Y-35567697D01*
X115222743Y-35327670D01*
X115219744Y-35238028D01*
X115216598Y-35172962D01*
X115212701Y-35128026D01*
X115207447Y-35098770D01*
X115200231Y-35080748D01*
X115190450Y-35069511D01*
X115187312Y-35067079D01*
X115139761Y-35048083D01*
X115091697Y-35055600D01*
X115063086Y-35075543D01*
X115051447Y-35089675D01*
X115043391Y-35108220D01*
X115038271Y-35136334D01*
X115035441Y-35179173D01*
X115034256Y-35241895D01*
X115034057Y-35307261D01*
X115034018Y-35389268D01*
X115032614Y-35447316D01*
X115027914Y-35486465D01*
X115017987Y-35511780D01*
X115000903Y-35528323D01*
X114974732Y-35541156D01*
X114939775Y-35554491D01*
X114901596Y-35569007D01*
X114906141Y-35311389D01*
X114907971Y-35218519D01*
X114910112Y-35149889D01*
X114913181Y-35100711D01*
X114917794Y-35066198D01*
X114924568Y-35041562D01*
X114934119Y-35022016D01*
X114945634Y-35004770D01*
X115001190Y-34949680D01*
X115068980Y-34917822D01*
X115142713Y-34910191D01*
X115216093Y-34927780D01*
G37*
X117029926Y-34949755D02*
X117095858Y-34974084D01*
X117149273Y-35017117D01*
X117170164Y-35047409D01*
X117192939Y-35102994D01*
X117192466Y-35143186D01*
X117168562Y-35170217D01*
X117159717Y-35174813D01*
X117121530Y-35189144D01*
X117102028Y-35185472D01*
X117095422Y-35161407D01*
X117095086Y-35148114D01*
X117082992Y-35099210D01*
X117051471Y-35064999D01*
X117007659Y-35048476D01*
X116958695Y-35052634D01*
X116918894Y-35074227D01*
X116905450Y-35086544D01*
X116895921Y-35101487D01*
X116889485Y-35124075D01*
X116885317Y-35159328D01*
X116882597Y-35212266D01*
X116880502Y-35287907D01*
X116879960Y-35311857D01*
X116877981Y-35393790D01*
X116875731Y-35451455D01*
X116872357Y-35489608D01*
X116867006Y-35513004D01*
X116858824Y-35526398D01*
X116846959Y-35534545D01*
X116839362Y-35538144D01*
X116807102Y-35550452D01*
X116788111Y-35554514D01*
X116781836Y-35540948D01*
X116778006Y-35499934D01*
X116776600Y-35430999D01*
X116777598Y-35333669D01*
X116777908Y-35318657D01*
X116780101Y-35229859D01*
X116782693Y-35165019D01*
X116786382Y-35119067D01*
X116791864Y-35086935D01*
X116799835Y-35063553D01*
X116810993Y-35043852D01*
X116816830Y-35035410D01*
X116850296Y-34998057D01*
X116887727Y-34969003D01*
X116892309Y-34966467D01*
X116959426Y-34946443D01*
X117029926Y-34949755D01*
G36*
X117029926Y-34949755D02*
G01*
X117095858Y-34974084D01*
X117149273Y-35017117D01*
X117170164Y-35047409D01*
X117192939Y-35102994D01*
X117192466Y-35143186D01*
X117168562Y-35170217D01*
X117159717Y-35174813D01*
X117121530Y-35189144D01*
X117102028Y-35185472D01*
X117095422Y-35161407D01*
X117095086Y-35148114D01*
X117082992Y-35099210D01*
X117051471Y-35064999D01*
X117007659Y-35048476D01*
X116958695Y-35052634D01*
X116918894Y-35074227D01*
X116905450Y-35086544D01*
X116895921Y-35101487D01*
X116889485Y-35124075D01*
X116885317Y-35159328D01*
X116882597Y-35212266D01*
X116880502Y-35287907D01*
X116879960Y-35311857D01*
X116877981Y-35393790D01*
X116875731Y-35451455D01*
X116872357Y-35489608D01*
X116867006Y-35513004D01*
X116858824Y-35526398D01*
X116846959Y-35534545D01*
X116839362Y-35538144D01*
X116807102Y-35550452D01*
X116788111Y-35554514D01*
X116781836Y-35540948D01*
X116778006Y-35499934D01*
X116776600Y-35430999D01*
X116777598Y-35333669D01*
X116777908Y-35318657D01*
X116780101Y-35229859D01*
X116782693Y-35165019D01*
X116786382Y-35119067D01*
X116791864Y-35086935D01*
X116799835Y-35063553D01*
X116810993Y-35043852D01*
X116816830Y-35035410D01*
X116850296Y-34998057D01*
X116887727Y-34969003D01*
X116892309Y-34966467D01*
X116959426Y-34946443D01*
X117029926Y-34949755D01*
G37*
X115875886Y-34851289D02*
X115880139Y-34910613D01*
X115885025Y-34945572D01*
X115891795Y-34960820D01*
X115901702Y-34961015D01*
X115904914Y-34959195D01*
X115947644Y-34946015D01*
X116003227Y-34946785D01*
X116059737Y-34960333D01*
X116095082Y-34977861D01*
X116131321Y-35005861D01*
X116157813Y-35037549D01*
X116175999Y-35077813D01*
X116187322Y-35131543D01*
X116193222Y-35203626D01*
X116195143Y-35298951D01*
X116195177Y-35317237D01*
X116195200Y-35522646D01*
X116149491Y-35538580D01*
X116117027Y-35549420D01*
X116099215Y-35554468D01*
X116098691Y-35554514D01*
X116096937Y-35540828D01*
X116095444Y-35503076D01*
X116094326Y-35446224D01*
X116093697Y-35375234D01*
X116093600Y-35332073D01*
X116093398Y-35246973D01*
X116092358Y-35185981D01*
X116089831Y-35144177D01*
X116085164Y-35116642D01*
X116077707Y-35098456D01*
X116066811Y-35084698D01*
X116060007Y-35078073D01*
X116013272Y-35051375D01*
X115962272Y-35049375D01*
X115916001Y-35071955D01*
X115907444Y-35080107D01*
X115894893Y-35095436D01*
X115886188Y-35113618D01*
X115880631Y-35139909D01*
X115877526Y-35179562D01*
X115876176Y-35237832D01*
X115875886Y-35318173D01*
X115875886Y-35522646D01*
X115830177Y-35538580D01*
X115797713Y-35549420D01*
X115779901Y-35554468D01*
X115779377Y-35554514D01*
X115778037Y-35540623D01*
X115776828Y-35501439D01*
X115775801Y-35440700D01*
X115775002Y-35362141D01*
X115774481Y-35269498D01*
X115774286Y-35166509D01*
X115774286Y-34769342D01*
X115821457Y-34749444D01*
X115868629Y-34729547D01*
X115875886Y-34851289D01*
G36*
X115875886Y-34851289D02*
G01*
X115880139Y-34910613D01*
X115885025Y-34945572D01*
X115891795Y-34960820D01*
X115901702Y-34961015D01*
X115904914Y-34959195D01*
X115947644Y-34946015D01*
X116003227Y-34946785D01*
X116059737Y-34960333D01*
X116095082Y-34977861D01*
X116131321Y-35005861D01*
X116157813Y-35037549D01*
X116175999Y-35077813D01*
X116187322Y-35131543D01*
X116193222Y-35203626D01*
X116195143Y-35298951D01*
X116195177Y-35317237D01*
X116195200Y-35522646D01*
X116149491Y-35538580D01*
X116117027Y-35549420D01*
X116099215Y-35554468D01*
X116098691Y-35554514D01*
X116096937Y-35540828D01*
X116095444Y-35503076D01*
X116094326Y-35446224D01*
X116093697Y-35375234D01*
X116093600Y-35332073D01*
X116093398Y-35246973D01*
X116092358Y-35185981D01*
X116089831Y-35144177D01*
X116085164Y-35116642D01*
X116077707Y-35098456D01*
X116066811Y-35084698D01*
X116060007Y-35078073D01*
X116013272Y-35051375D01*
X115962272Y-35049375D01*
X115916001Y-35071955D01*
X115907444Y-35080107D01*
X115894893Y-35095436D01*
X115886188Y-35113618D01*
X115880631Y-35139909D01*
X115877526Y-35179562D01*
X115876176Y-35237832D01*
X115875886Y-35318173D01*
X115875886Y-35522646D01*
X115830177Y-35538580D01*
X115797713Y-35549420D01*
X115779901Y-35554468D01*
X115779377Y-35554514D01*
X115778037Y-35540623D01*
X115776828Y-35501439D01*
X115775801Y-35440700D01*
X115775002Y-35362141D01*
X115774481Y-35269498D01*
X115774286Y-35166509D01*
X115774286Y-34769342D01*
X115821457Y-34749444D01*
X115868629Y-34729547D01*
X115875886Y-34851289D01*
G37*
X118279833Y-34958663D02*
X118282048Y-34996850D01*
X118283784Y-35054886D01*
X118284899Y-35128180D01*
X118285257Y-35205055D01*
X118285257Y-35465196D01*
X118239326Y-35511127D01*
X118207675Y-35539429D01*
X118179890Y-35550893D01*
X118141915Y-35550168D01*
X118126840Y-35548321D01*
X118079726Y-35542948D01*
X118040756Y-35539869D01*
X118031257Y-35539585D01*
X117999233Y-35541445D01*
X117953432Y-35546114D01*
X117935674Y-35548321D01*
X117892057Y-35551735D01*
X117862745Y-35544320D01*
X117833680Y-35521427D01*
X117823188Y-35511127D01*
X117777257Y-35465196D01*
X117777257Y-34978602D01*
X117814226Y-34961758D01*
X117846059Y-34949282D01*
X117864683Y-34944914D01*
X117869458Y-34958718D01*
X117873921Y-34997286D01*
X117877775Y-35056356D01*
X117880722Y-35131663D01*
X117882143Y-35195286D01*
X117886114Y-35445657D01*
X117920759Y-35450556D01*
X117952268Y-35447131D01*
X117967708Y-35436041D01*
X117972023Y-35415308D01*
X117975708Y-35371145D01*
X117978469Y-35309146D01*
X117980012Y-35234909D01*
X117980235Y-35196706D01*
X117980457Y-34976783D01*
X118026166Y-34960849D01*
X118058518Y-34950015D01*
X118076115Y-34944962D01*
X118076623Y-34944914D01*
X118078388Y-34958648D01*
X118080329Y-34996730D01*
X118082282Y-35054482D01*
X118084084Y-35127227D01*
X118085343Y-35195286D01*
X118089314Y-35445657D01*
X118176400Y-35445657D01*
X118180396Y-35217240D01*
X118184392Y-34988822D01*
X118226847Y-34966868D01*
X118258192Y-34951793D01*
X118276744Y-34944951D01*
X118277279Y-34944914D01*
X118279833Y-34958663D01*
G36*
X118279833Y-34958663D02*
G01*
X118282048Y-34996850D01*
X118283784Y-35054886D01*
X118284899Y-35128180D01*
X118285257Y-35205055D01*
X118285257Y-35465196D01*
X118239326Y-35511127D01*
X118207675Y-35539429D01*
X118179890Y-35550893D01*
X118141915Y-35550168D01*
X118126840Y-35548321D01*
X118079726Y-35542948D01*
X118040756Y-35539869D01*
X118031257Y-35539585D01*
X117999233Y-35541445D01*
X117953432Y-35546114D01*
X117935674Y-35548321D01*
X117892057Y-35551735D01*
X117862745Y-35544320D01*
X117833680Y-35521427D01*
X117823188Y-35511127D01*
X117777257Y-35465196D01*
X117777257Y-34978602D01*
X117814226Y-34961758D01*
X117846059Y-34949282D01*
X117864683Y-34944914D01*
X117869458Y-34958718D01*
X117873921Y-34997286D01*
X117877775Y-35056356D01*
X117880722Y-35131663D01*
X117882143Y-35195286D01*
X117886114Y-35445657D01*
X117920759Y-35450556D01*
X117952268Y-35447131D01*
X117967708Y-35436041D01*
X117972023Y-35415308D01*
X117975708Y-35371145D01*
X117978469Y-35309146D01*
X117980012Y-35234909D01*
X117980235Y-35196706D01*
X117980457Y-34976783D01*
X118026166Y-34960849D01*
X118058518Y-34950015D01*
X118076115Y-34944962D01*
X118076623Y-34944914D01*
X118078388Y-34958648D01*
X118080329Y-34996730D01*
X118082282Y-35054482D01*
X118084084Y-35127227D01*
X118085343Y-35195286D01*
X118089314Y-35445657D01*
X118176400Y-35445657D01*
X118180396Y-35217240D01*
X118184392Y-34988822D01*
X118226847Y-34966868D01*
X118258192Y-34951793D01*
X118276744Y-34944951D01*
X118277279Y-34944914D01*
X118279833Y-34958663D01*
G37*
X113541115Y-34921962D02*
X113609145Y-34957733D01*
X113659351Y-35015301D01*
X113677185Y-35052312D01*
X113691063Y-35107882D01*
X113698167Y-35178096D01*
X113698840Y-35254727D01*
X113693427Y-35329552D01*
X113682270Y-35394342D01*
X113665714Y-35440873D01*
X113660626Y-35448887D01*
X113600355Y-35508707D01*
X113528769Y-35544535D01*
X113451092Y-35555020D01*
X113372548Y-35538810D01*
X113350689Y-35529092D01*
X113308122Y-35499143D01*
X113270763Y-35459433D01*
X113267232Y-35454397D01*
X113252881Y-35430124D01*
X113243394Y-35404178D01*
X113237790Y-35370022D01*
X113235086Y-35321119D01*
X113234299Y-35250935D01*
X113234286Y-35235200D01*
X113234322Y-35230192D01*
X113379429Y-35230192D01*
X113380273Y-35296430D01*
X113383596Y-35340386D01*
X113390583Y-35368779D01*
X113402416Y-35388325D01*
X113408457Y-35394857D01*
X113443186Y-35419680D01*
X113476903Y-35418548D01*
X113510995Y-35397016D01*
X113531329Y-35374029D01*
X113543371Y-35340478D01*
X113550134Y-35287569D01*
X113550598Y-35281399D01*
X113551752Y-35185513D01*
X113539688Y-35114299D01*
X113514570Y-35068194D01*
X113476560Y-35047635D01*
X113462992Y-35046514D01*
X113427364Y-35052152D01*
X113402994Y-35071686D01*
X113388093Y-35109042D01*
X113380875Y-35168150D01*
X113379429Y-35230192D01*
X113234322Y-35230192D01*
X113234826Y-35160413D01*
X113237096Y-35108159D01*
X113242068Y-35071949D01*
X113250713Y-35045299D01*
X113264005Y-35021722D01*
X113266943Y-35017338D01*
X113316313Y-34958249D01*
X113370109Y-34923947D01*
X113435602Y-34910331D01*
X113457842Y-34909665D01*
X113541115Y-34921962D01*
G36*
X113541115Y-34921962D02*
G01*
X113609145Y-34957733D01*
X113659351Y-35015301D01*
X113677185Y-35052312D01*
X113691063Y-35107882D01*
X113698167Y-35178096D01*
X113698840Y-35254727D01*
X113693427Y-35329552D01*
X113682270Y-35394342D01*
X113665714Y-35440873D01*
X113660626Y-35448887D01*
X113600355Y-35508707D01*
X113528769Y-35544535D01*
X113451092Y-35555020D01*
X113372548Y-35538810D01*
X113350689Y-35529092D01*
X113308122Y-35499143D01*
X113270763Y-35459433D01*
X113267232Y-35454397D01*
X113252881Y-35430124D01*
X113243394Y-35404178D01*
X113237790Y-35370022D01*
X113235086Y-35321119D01*
X113234299Y-35250935D01*
X113234286Y-35235200D01*
X113234322Y-35230192D01*
X113379429Y-35230192D01*
X113380273Y-35296430D01*
X113383596Y-35340386D01*
X113390583Y-35368779D01*
X113402416Y-35388325D01*
X113408457Y-35394857D01*
X113443186Y-35419680D01*
X113476903Y-35418548D01*
X113510995Y-35397016D01*
X113531329Y-35374029D01*
X113543371Y-35340478D01*
X113550134Y-35287569D01*
X113550598Y-35281399D01*
X113551752Y-35185513D01*
X113539688Y-35114299D01*
X113514570Y-35068194D01*
X113476560Y-35047635D01*
X113462992Y-35046514D01*
X113427364Y-35052152D01*
X113402994Y-35071686D01*
X113388093Y-35109042D01*
X113380875Y-35168150D01*
X113379429Y-35230192D01*
X113234322Y-35230192D01*
X113234826Y-35160413D01*
X113237096Y-35108159D01*
X113242068Y-35071949D01*
X113250713Y-35045299D01*
X113264005Y-35021722D01*
X113266943Y-35017338D01*
X113316313Y-34958249D01*
X113370109Y-34923947D01*
X113435602Y-34910331D01*
X113457842Y-34909665D01*
X113541115Y-34921962D01*
G37*
X119653595Y-34966966D02*
X119711021Y-35004497D01*
X119738719Y-35038096D01*
X119760662Y-35099064D01*
X119762405Y-35147308D01*
X119758457Y-35211816D01*
X119609686Y-35276934D01*
X119537349Y-35310202D01*
X119490084Y-35336964D01*
X119465507Y-35360144D01*
X119461237Y-35382667D01*
X119474889Y-35407455D01*
X119489943Y-35423886D01*
X119533746Y-35450235D01*
X119581389Y-35452081D01*
X119625145Y-35431546D01*
X119657289Y-35390752D01*
X119663038Y-35376347D01*
X119690576Y-35331356D01*
X119722258Y-35312182D01*
X119765714Y-35295779D01*
X119765714Y-35357966D01*
X119761872Y-35400283D01*
X119746823Y-35435969D01*
X119715280Y-35476943D01*
X119710592Y-35482267D01*
X119675506Y-35518720D01*
X119645347Y-35538283D01*
X119607615Y-35547283D01*
X119576335Y-35550230D01*
X119520385Y-35550965D01*
X119480555Y-35541660D01*
X119455708Y-35527846D01*
X119416656Y-35497467D01*
X119389625Y-35464613D01*
X119372517Y-35423294D01*
X119363238Y-35367521D01*
X119359693Y-35291305D01*
X119359410Y-35252622D01*
X119360372Y-35206247D01*
X119448007Y-35206247D01*
X119449023Y-35231126D01*
X119451556Y-35235200D01*
X119468274Y-35229665D01*
X119504249Y-35215017D01*
X119552331Y-35194190D01*
X119562386Y-35189714D01*
X119623152Y-35158814D01*
X119656632Y-35131657D01*
X119663990Y-35106220D01*
X119646391Y-35080481D01*
X119631856Y-35069109D01*
X119579410Y-35046364D01*
X119530322Y-35050122D01*
X119489227Y-35077884D01*
X119460758Y-35127152D01*
X119451631Y-35166257D01*
X119448007Y-35206247D01*
X119360372Y-35206247D01*
X119361285Y-35162249D01*
X119368196Y-35095384D01*
X119381884Y-35046695D01*
X119404096Y-35010849D01*
X119436574Y-34982513D01*
X119450733Y-34973355D01*
X119515053Y-34949507D01*
X119585473Y-34948006D01*
X119653595Y-34966966D01*
G36*
X119653595Y-34966966D02*
G01*
X119711021Y-35004497D01*
X119738719Y-35038096D01*
X119760662Y-35099064D01*
X119762405Y-35147308D01*
X119758457Y-35211816D01*
X119609686Y-35276934D01*
X119537349Y-35310202D01*
X119490084Y-35336964D01*
X119465507Y-35360144D01*
X119461237Y-35382667D01*
X119474889Y-35407455D01*
X119489943Y-35423886D01*
X119533746Y-35450235D01*
X119581389Y-35452081D01*
X119625145Y-35431546D01*
X119657289Y-35390752D01*
X119663038Y-35376347D01*
X119690576Y-35331356D01*
X119722258Y-35312182D01*
X119765714Y-35295779D01*
X119765714Y-35357966D01*
X119761872Y-35400283D01*
X119746823Y-35435969D01*
X119715280Y-35476943D01*
X119710592Y-35482267D01*
X119675506Y-35518720D01*
X119645347Y-35538283D01*
X119607615Y-35547283D01*
X119576335Y-35550230D01*
X119520385Y-35550965D01*
X119480555Y-35541660D01*
X119455708Y-35527846D01*
X119416656Y-35497467D01*
X119389625Y-35464613D01*
X119372517Y-35423294D01*
X119363238Y-35367521D01*
X119359693Y-35291305D01*
X119359410Y-35252622D01*
X119360372Y-35206247D01*
X119448007Y-35206247D01*
X119449023Y-35231126D01*
X119451556Y-35235200D01*
X119468274Y-35229665D01*
X119504249Y-35215017D01*
X119552331Y-35194190D01*
X119562386Y-35189714D01*
X119623152Y-35158814D01*
X119656632Y-35131657D01*
X119663990Y-35106220D01*
X119646391Y-35080481D01*
X119631856Y-35069109D01*
X119579410Y-35046364D01*
X119530322Y-35050122D01*
X119489227Y-35077884D01*
X119460758Y-35127152D01*
X119451631Y-35166257D01*
X119448007Y-35206247D01*
X119360372Y-35206247D01*
X119361285Y-35162249D01*
X119368196Y-35095384D01*
X119381884Y-35046695D01*
X119404096Y-35010849D01*
X119436574Y-34982513D01*
X119450733Y-34973355D01*
X119515053Y-34949507D01*
X119585473Y-34948006D01*
X119653595Y-34966966D01*
G37*
X117690117Y-35065358D02*
X117689933Y-35173837D01*
X117689219Y-35257287D01*
X117687675Y-35319704D01*
X117685001Y-35365085D01*
X117680894Y-35397429D01*
X117675055Y-35420733D01*
X117667182Y-35438995D01*
X117661221Y-35449418D01*
X117611855Y-35505945D01*
X117549264Y-35541377D01*
X117480013Y-35554090D01*
X117410668Y-35542463D01*
X117369375Y-35521568D01*
X117326025Y-35485422D01*
X117296481Y-35441276D01*
X117278655Y-35383462D01*
X117270463Y-35306313D01*
X117269302Y-35249714D01*
X117269458Y-35245647D01*
X117370857Y-35245647D01*
X117371476Y-35310550D01*
X117374314Y-35353514D01*
X117380840Y-35381622D01*
X117392523Y-35401953D01*
X117406483Y-35417288D01*
X117453365Y-35446890D01*
X117503701Y-35449419D01*
X117551276Y-35424705D01*
X117554979Y-35421356D01*
X117570783Y-35403935D01*
X117580693Y-35383209D01*
X117586058Y-35352362D01*
X117588228Y-35304577D01*
X117588571Y-35251748D01*
X117587827Y-35185381D01*
X117584748Y-35141106D01*
X117578061Y-35112009D01*
X117566496Y-35091173D01*
X117557013Y-35080107D01*
X117512960Y-35052198D01*
X117462224Y-35048843D01*
X117413796Y-35070159D01*
X117404450Y-35078073D01*
X117388540Y-35095647D01*
X117378610Y-35116587D01*
X117373278Y-35147782D01*
X117371163Y-35196122D01*
X117370857Y-35245647D01*
X117269458Y-35245647D01*
X117272810Y-35158568D01*
X117284726Y-35090086D01*
X117307135Y-35038600D01*
X117342124Y-34998443D01*
X117369375Y-34977861D01*
X117418907Y-34955625D01*
X117476316Y-34945304D01*
X117529682Y-34948067D01*
X117559543Y-34959212D01*
X117571261Y-34962383D01*
X117579037Y-34950557D01*
X117584465Y-34918866D01*
X117588571Y-34870593D01*
X117593067Y-34816829D01*
X117599313Y-34784482D01*
X117610676Y-34765985D01*
X117630528Y-34753770D01*
X117643000Y-34748362D01*
X117690171Y-34728601D01*
X117690117Y-35065358D01*
G36*
X117690117Y-35065358D02*
G01*
X117689933Y-35173837D01*
X117689219Y-35257287D01*
X117687675Y-35319704D01*
X117685001Y-35365085D01*
X117680894Y-35397429D01*
X117675055Y-35420733D01*
X117667182Y-35438995D01*
X117661221Y-35449418D01*
X117611855Y-35505945D01*
X117549264Y-35541377D01*
X117480013Y-35554090D01*
X117410668Y-35542463D01*
X117369375Y-35521568D01*
X117326025Y-35485422D01*
X117296481Y-35441276D01*
X117278655Y-35383462D01*
X117270463Y-35306313D01*
X117269302Y-35249714D01*
X117269458Y-35245647D01*
X117370857Y-35245647D01*
X117371476Y-35310550D01*
X117374314Y-35353514D01*
X117380840Y-35381622D01*
X117392523Y-35401953D01*
X117406483Y-35417288D01*
X117453365Y-35446890D01*
X117503701Y-35449419D01*
X117551276Y-35424705D01*
X117554979Y-35421356D01*
X117570783Y-35403935D01*
X117580693Y-35383209D01*
X117586058Y-35352362D01*
X117588228Y-35304577D01*
X117588571Y-35251748D01*
X117587827Y-35185381D01*
X117584748Y-35141106D01*
X117578061Y-35112009D01*
X117566496Y-35091173D01*
X117557013Y-35080107D01*
X117512960Y-35052198D01*
X117462224Y-35048843D01*
X117413796Y-35070159D01*
X117404450Y-35078073D01*
X117388540Y-35095647D01*
X117378610Y-35116587D01*
X117373278Y-35147782D01*
X117371163Y-35196122D01*
X117370857Y-35245647D01*
X117269458Y-35245647D01*
X117272810Y-35158568D01*
X117284726Y-35090086D01*
X117307135Y-35038600D01*
X117342124Y-34998443D01*
X117369375Y-34977861D01*
X117418907Y-34955625D01*
X117476316Y-34945304D01*
X117529682Y-34948067D01*
X117559543Y-34959212D01*
X117571261Y-34962383D01*
X117579037Y-34950557D01*
X117584465Y-34918866D01*
X117588571Y-34870593D01*
X117593067Y-34816829D01*
X117599313Y-34784482D01*
X117610676Y-34765985D01*
X117630528Y-34753770D01*
X117643000Y-34748362D01*
X117690171Y-34728601D01*
X117690117Y-35065358D01*
G37*
X114668303Y-34931239D02*
X114725527Y-34969735D01*
X114769749Y-35025335D01*
X114796167Y-35096086D01*
X114801510Y-35148162D01*
X114800903Y-35169893D01*
X114795822Y-35186531D01*
X114781855Y-35201437D01*
X114754589Y-35217973D01*
X114709612Y-35239498D01*
X114642511Y-35269374D01*
X114642171Y-35269524D01*
X114580407Y-35297813D01*
X114529759Y-35322933D01*
X114495404Y-35342179D01*
X114482518Y-35352848D01*
X114482514Y-35352934D01*
X114493872Y-35376166D01*
X114520431Y-35401774D01*
X114550923Y-35420221D01*
X114566370Y-35423886D01*
X114608515Y-35411212D01*
X114644808Y-35379471D01*
X114662517Y-35344572D01*
X114679552Y-35318845D01*
X114712922Y-35289546D01*
X114752149Y-35264235D01*
X114786756Y-35250471D01*
X114793993Y-35249714D01*
X114802139Y-35262160D01*
X114802630Y-35293972D01*
X114796643Y-35336866D01*
X114785357Y-35382558D01*
X114769950Y-35422761D01*
X114769171Y-35424322D01*
X114722804Y-35489062D01*
X114662711Y-35533097D01*
X114594465Y-35554711D01*
X114523638Y-35552185D01*
X114455804Y-35523804D01*
X114452788Y-35521808D01*
X114399427Y-35473448D01*
X114364340Y-35410352D01*
X114344922Y-35327387D01*
X114342316Y-35304078D01*
X114337701Y-35194055D01*
X114343233Y-35142748D01*
X114482514Y-35142748D01*
X114484324Y-35174753D01*
X114494222Y-35184093D01*
X114518898Y-35177105D01*
X114557795Y-35160587D01*
X114601275Y-35139881D01*
X114602356Y-35139333D01*
X114639209Y-35119949D01*
X114654000Y-35107013D01*
X114650353Y-35093451D01*
X114634995Y-35075632D01*
X114595923Y-35049845D01*
X114553846Y-35047950D01*
X114516103Y-35066717D01*
X114490034Y-35102915D01*
X114482514Y-35142748D01*
X114343233Y-35142748D01*
X114347194Y-35106027D01*
X114371550Y-35036212D01*
X114405456Y-34987302D01*
X114466653Y-34937878D01*
X114534063Y-34913359D01*
X114602880Y-34911797D01*
X114668303Y-34931239D01*
G36*
X114668303Y-34931239D02*
G01*
X114725527Y-34969735D01*
X114769749Y-35025335D01*
X114796167Y-35096086D01*
X114801510Y-35148162D01*
X114800903Y-35169893D01*
X114795822Y-35186531D01*
X114781855Y-35201437D01*
X114754589Y-35217973D01*
X114709612Y-35239498D01*
X114642511Y-35269374D01*
X114642171Y-35269524D01*
X114580407Y-35297813D01*
X114529759Y-35322933D01*
X114495404Y-35342179D01*
X114482518Y-35352848D01*
X114482514Y-35352934D01*
X114493872Y-35376166D01*
X114520431Y-35401774D01*
X114550923Y-35420221D01*
X114566370Y-35423886D01*
X114608515Y-35411212D01*
X114644808Y-35379471D01*
X114662517Y-35344572D01*
X114679552Y-35318845D01*
X114712922Y-35289546D01*
X114752149Y-35264235D01*
X114786756Y-35250471D01*
X114793993Y-35249714D01*
X114802139Y-35262160D01*
X114802630Y-35293972D01*
X114796643Y-35336866D01*
X114785357Y-35382558D01*
X114769950Y-35422761D01*
X114769171Y-35424322D01*
X114722804Y-35489062D01*
X114662711Y-35533097D01*
X114594465Y-35554711D01*
X114523638Y-35552185D01*
X114455804Y-35523804D01*
X114452788Y-35521808D01*
X114399427Y-35473448D01*
X114364340Y-35410352D01*
X114344922Y-35327387D01*
X114342316Y-35304078D01*
X114337701Y-35194055D01*
X114343233Y-35142748D01*
X114482514Y-35142748D01*
X114484324Y-35174753D01*
X114494222Y-35184093D01*
X114518898Y-35177105D01*
X114557795Y-35160587D01*
X114601275Y-35139881D01*
X114602356Y-35139333D01*
X114639209Y-35119949D01*
X114654000Y-35107013D01*
X114650353Y-35093451D01*
X114634995Y-35075632D01*
X114595923Y-35049845D01*
X114553846Y-35047950D01*
X114516103Y-35066717D01*
X114490034Y-35102915D01*
X114482514Y-35142748D01*
X114343233Y-35142748D01*
X114347194Y-35106027D01*
X114371550Y-35036212D01*
X114405456Y-34987302D01*
X114466653Y-34937878D01*
X114534063Y-34913359D01*
X114602880Y-34911797D01*
X114668303Y-34931239D01*
G37*
X116539744Y-34950968D02*
X116596616Y-34972087D01*
X116597267Y-34972493D01*
X116632440Y-34998380D01*
X116658407Y-35028633D01*
X116676670Y-35068058D01*
X116688732Y-35121462D01*
X116696096Y-35193651D01*
X116700264Y-35289432D01*
X116700629Y-35303078D01*
X116705876Y-35508842D01*
X116661716Y-35531678D01*
X116629763Y-35547110D01*
X116610470Y-35554423D01*
X116609578Y-35554514D01*
X116606239Y-35541022D01*
X116603587Y-35504626D01*
X116601956Y-35451452D01*
X116601600Y-35408393D01*
X116601592Y-35338641D01*
X116598403Y-35294837D01*
X116587288Y-35273944D01*
X116563501Y-35272925D01*
X116522296Y-35288741D01*
X116460086Y-35317815D01*
X116414341Y-35341963D01*
X116390813Y-35362913D01*
X116383896Y-35385747D01*
X116383886Y-35386877D01*
X116395299Y-35426212D01*
X116429092Y-35447462D01*
X116480809Y-35450539D01*
X116518061Y-35450006D01*
X116537703Y-35460735D01*
X116549952Y-35486505D01*
X116557002Y-35519337D01*
X116546842Y-35537966D01*
X116543017Y-35540632D01*
X116507001Y-35551340D01*
X116456566Y-35552856D01*
X116404626Y-35545759D01*
X116367822Y-35532788D01*
X116316938Y-35489585D01*
X116288014Y-35429446D01*
X116282286Y-35382462D01*
X116286657Y-35340082D01*
X116302475Y-35305488D01*
X116333797Y-35274763D01*
X116384678Y-35243990D01*
X116459176Y-35209252D01*
X116463714Y-35207288D01*
X116530821Y-35176287D01*
X116572232Y-35150862D01*
X116589981Y-35128014D01*
X116586107Y-35104745D01*
X116562643Y-35078056D01*
X116555627Y-35071914D01*
X116508630Y-35048100D01*
X116459933Y-35049103D01*
X116417522Y-35072451D01*
X116389384Y-35115675D01*
X116386769Y-35124160D01*
X116361308Y-35165308D01*
X116329001Y-35185128D01*
X116282286Y-35204770D01*
X116282286Y-35153950D01*
X116296496Y-35080082D01*
X116338675Y-35012327D01*
X116360624Y-34989661D01*
X116410517Y-34960569D01*
X116473967Y-34947400D01*
X116539744Y-34950968D01*
G36*
X116539744Y-34950968D02*
G01*
X116596616Y-34972087D01*
X116597267Y-34972493D01*
X116632440Y-34998380D01*
X116658407Y-35028633D01*
X116676670Y-35068058D01*
X116688732Y-35121462D01*
X116696096Y-35193651D01*
X116700264Y-35289432D01*
X116700629Y-35303078D01*
X116705876Y-35508842D01*
X116661716Y-35531678D01*
X116629763Y-35547110D01*
X116610470Y-35554423D01*
X116609578Y-35554514D01*
X116606239Y-35541022D01*
X116603587Y-35504626D01*
X116601956Y-35451452D01*
X116601600Y-35408393D01*
X116601592Y-35338641D01*
X116598403Y-35294837D01*
X116587288Y-35273944D01*
X116563501Y-35272925D01*
X116522296Y-35288741D01*
X116460086Y-35317815D01*
X116414341Y-35341963D01*
X116390813Y-35362913D01*
X116383896Y-35385747D01*
X116383886Y-35386877D01*
X116395299Y-35426212D01*
X116429092Y-35447462D01*
X116480809Y-35450539D01*
X116518061Y-35450006D01*
X116537703Y-35460735D01*
X116549952Y-35486505D01*
X116557002Y-35519337D01*
X116546842Y-35537966D01*
X116543017Y-35540632D01*
X116507001Y-35551340D01*
X116456566Y-35552856D01*
X116404626Y-35545759D01*
X116367822Y-35532788D01*
X116316938Y-35489585D01*
X116288014Y-35429446D01*
X116282286Y-35382462D01*
X116286657Y-35340082D01*
X116302475Y-35305488D01*
X116333797Y-35274763D01*
X116384678Y-35243990D01*
X116459176Y-35209252D01*
X116463714Y-35207288D01*
X116530821Y-35176287D01*
X116572232Y-35150862D01*
X116589981Y-35128014D01*
X116586107Y-35104745D01*
X116562643Y-35078056D01*
X116555627Y-35071914D01*
X116508630Y-35048100D01*
X116459933Y-35049103D01*
X116417522Y-35072451D01*
X116389384Y-35115675D01*
X116386769Y-35124160D01*
X116361308Y-35165308D01*
X116329001Y-35185128D01*
X116282286Y-35204770D01*
X116282286Y-35153950D01*
X116296496Y-35080082D01*
X116338675Y-35012327D01*
X116360624Y-34989661D01*
X116410517Y-34960569D01*
X116473967Y-34947400D01*
X116539744Y-34950968D01*
G37*
X114099744Y-34919918D02*
X114155201Y-34947568D01*
X114204148Y-34998480D01*
X114217629Y-35017338D01*
X114232314Y-35042015D01*
X114241842Y-35068816D01*
X114247293Y-35104587D01*
X114249747Y-35156169D01*
X114250286Y-35224267D01*
X114247852Y-35317588D01*
X114239394Y-35387657D01*
X114223174Y-35439931D01*
X114197454Y-35479869D01*
X114160497Y-35512929D01*
X114157782Y-35514886D01*
X114121360Y-35534908D01*
X114077502Y-35544815D01*
X114021724Y-35547257D01*
X113931048Y-35547257D01*
X113931010Y-35635283D01*
X113930166Y-35684308D01*
X113925024Y-35713065D01*
X113911587Y-35730311D01*
X113885858Y-35744808D01*
X113879679Y-35747769D01*
X113850764Y-35761648D01*
X113828376Y-35770414D01*
X113811729Y-35771171D01*
X113800036Y-35761023D01*
X113792510Y-35737073D01*
X113788366Y-35696426D01*
X113786815Y-35636186D01*
X113787071Y-35553455D01*
X113788349Y-35445339D01*
X113788748Y-35413000D01*
X113790185Y-35301524D01*
X113791472Y-35228603D01*
X113930971Y-35228603D01*
X113931755Y-35290499D01*
X113935240Y-35330997D01*
X113943124Y-35357708D01*
X113957105Y-35378244D01*
X113966597Y-35388260D01*
X114005404Y-35417567D01*
X114039763Y-35419952D01*
X114075216Y-35395750D01*
X114076114Y-35394857D01*
X114090539Y-35376153D01*
X114099313Y-35350732D01*
X114103739Y-35311584D01*
X114105118Y-35251697D01*
X114105143Y-35238430D01*
X114101812Y-35155901D01*
X114090969Y-35098691D01*
X114071340Y-35063766D01*
X114041650Y-35048094D01*
X114024491Y-35046514D01*
X113983766Y-35053926D01*
X113955832Y-35078330D01*
X113939017Y-35122980D01*
X113931650Y-35191130D01*
X113930971Y-35228603D01*
X113791472Y-35228603D01*
X113791708Y-35215245D01*
X113793677Y-35150333D01*
X113796450Y-35102958D01*
X113800388Y-35069290D01*
X113805849Y-35045498D01*
X113813192Y-35027753D01*
X113822777Y-35012224D01*
X113826887Y-35006381D01*
X113881405Y-34951185D01*
X113950336Y-34919890D01*
X114030072Y-34911165D01*
X114099744Y-34919918D01*
G36*
X114099744Y-34919918D02*
G01*
X114155201Y-34947568D01*
X114204148Y-34998480D01*
X114217629Y-35017338D01*
X114232314Y-35042015D01*
X114241842Y-35068816D01*
X114247293Y-35104587D01*
X114249747Y-35156169D01*
X114250286Y-35224267D01*
X114247852Y-35317588D01*
X114239394Y-35387657D01*
X114223174Y-35439931D01*
X114197454Y-35479869D01*
X114160497Y-35512929D01*
X114157782Y-35514886D01*
X114121360Y-35534908D01*
X114077502Y-35544815D01*
X114021724Y-35547257D01*
X113931048Y-35547257D01*
X113931010Y-35635283D01*
X113930166Y-35684308D01*
X113925024Y-35713065D01*
X113911587Y-35730311D01*
X113885858Y-35744808D01*
X113879679Y-35747769D01*
X113850764Y-35761648D01*
X113828376Y-35770414D01*
X113811729Y-35771171D01*
X113800036Y-35761023D01*
X113792510Y-35737073D01*
X113788366Y-35696426D01*
X113786815Y-35636186D01*
X113787071Y-35553455D01*
X113788349Y-35445339D01*
X113788748Y-35413000D01*
X113790185Y-35301524D01*
X113791472Y-35228603D01*
X113930971Y-35228603D01*
X113931755Y-35290499D01*
X113935240Y-35330997D01*
X113943124Y-35357708D01*
X113957105Y-35378244D01*
X113966597Y-35388260D01*
X114005404Y-35417567D01*
X114039763Y-35419952D01*
X114075216Y-35395750D01*
X114076114Y-35394857D01*
X114090539Y-35376153D01*
X114099313Y-35350732D01*
X114103739Y-35311584D01*
X114105118Y-35251697D01*
X114105143Y-35238430D01*
X114101812Y-35155901D01*
X114090969Y-35098691D01*
X114071340Y-35063766D01*
X114041650Y-35048094D01*
X114024491Y-35046514D01*
X113983766Y-35053926D01*
X113955832Y-35078330D01*
X113939017Y-35122980D01*
X113931650Y-35191130D01*
X113930971Y-35228603D01*
X113791472Y-35228603D01*
X113791708Y-35215245D01*
X113793677Y-35150333D01*
X113796450Y-35102958D01*
X113800388Y-35069290D01*
X113805849Y-35045498D01*
X113813192Y-35027753D01*
X113822777Y-35012224D01*
X113826887Y-35006381D01*
X113881405Y-34951185D01*
X113950336Y-34919890D01*
X114030072Y-34911165D01*
X114099744Y-34919918D01*
G37*
X118644876Y-34956335D02*
X118686667Y-34975344D01*
X118719469Y-34998378D01*
X118743503Y-35024133D01*
X118760097Y-35057358D01*
X118770577Y-35102800D01*
X118776271Y-35165207D01*
X118778507Y-35249327D01*
X118778743Y-35304721D01*
X118778743Y-35520826D01*
X118741774Y-35537670D01*
X118712656Y-35549981D01*
X118698231Y-35554514D01*
X118695472Y-35541025D01*
X118693282Y-35504653D01*
X118691942Y-35451542D01*
X118691657Y-35409372D01*
X118690434Y-35348447D01*
X118687136Y-35300115D01*
X118682321Y-35270518D01*
X118678496Y-35264229D01*
X118652783Y-35270652D01*
X118612418Y-35287125D01*
X118565679Y-35309458D01*
X118520845Y-35333457D01*
X118486193Y-35354930D01*
X118470002Y-35369685D01*
X118469938Y-35369845D01*
X118471330Y-35397152D01*
X118483818Y-35423219D01*
X118505743Y-35444392D01*
X118537743Y-35451474D01*
X118565092Y-35450649D01*
X118603826Y-35450042D01*
X118624158Y-35459116D01*
X118636369Y-35483092D01*
X118637909Y-35487613D01*
X118643203Y-35521806D01*
X118629047Y-35542568D01*
X118592148Y-35552462D01*
X118552289Y-35554292D01*
X118480562Y-35540727D01*
X118443432Y-35521355D01*
X118397576Y-35475845D01*
X118373256Y-35419983D01*
X118371073Y-35360957D01*
X118391629Y-35305953D01*
X118422549Y-35271486D01*
X118453420Y-35252189D01*
X118501942Y-35227759D01*
X118558485Y-35202985D01*
X118567910Y-35199199D01*
X118630019Y-35171791D01*
X118665822Y-35147634D01*
X118677337Y-35123619D01*
X118666580Y-35096635D01*
X118648114Y-35075543D01*
X118604469Y-35049572D01*
X118556446Y-35047624D01*
X118512406Y-35067637D01*
X118480709Y-35107551D01*
X118476549Y-35117848D01*
X118452327Y-35155724D01*
X118416965Y-35183842D01*
X118372343Y-35206917D01*
X118372343Y-35141485D01*
X118374969Y-35101506D01*
X118386230Y-35069997D01*
X118411199Y-35036378D01*
X118435169Y-35010484D01*
X118472441Y-34973817D01*
X118501401Y-34954121D01*
X118532505Y-34946220D01*
X118567713Y-34944914D01*
X118644876Y-34956335D01*
G36*
X118644876Y-34956335D02*
G01*
X118686667Y-34975344D01*
X118719469Y-34998378D01*
X118743503Y-35024133D01*
X118760097Y-35057358D01*
X118770577Y-35102800D01*
X118776271Y-35165207D01*
X118778507Y-35249327D01*
X118778743Y-35304721D01*
X118778743Y-35520826D01*
X118741774Y-35537670D01*
X118712656Y-35549981D01*
X118698231Y-35554514D01*
X118695472Y-35541025D01*
X118693282Y-35504653D01*
X118691942Y-35451542D01*
X118691657Y-35409372D01*
X118690434Y-35348447D01*
X118687136Y-35300115D01*
X118682321Y-35270518D01*
X118678496Y-35264229D01*
X118652783Y-35270652D01*
X118612418Y-35287125D01*
X118565679Y-35309458D01*
X118520845Y-35333457D01*
X118486193Y-35354930D01*
X118470002Y-35369685D01*
X118469938Y-35369845D01*
X118471330Y-35397152D01*
X118483818Y-35423219D01*
X118505743Y-35444392D01*
X118537743Y-35451474D01*
X118565092Y-35450649D01*
X118603826Y-35450042D01*
X118624158Y-35459116D01*
X118636369Y-35483092D01*
X118637909Y-35487613D01*
X118643203Y-35521806D01*
X118629047Y-35542568D01*
X118592148Y-35552462D01*
X118552289Y-35554292D01*
X118480562Y-35540727D01*
X118443432Y-35521355D01*
X118397576Y-35475845D01*
X118373256Y-35419983D01*
X118371073Y-35360957D01*
X118391629Y-35305953D01*
X118422549Y-35271486D01*
X118453420Y-35252189D01*
X118501942Y-35227759D01*
X118558485Y-35202985D01*
X118567910Y-35199199D01*
X118630019Y-35171791D01*
X118665822Y-35147634D01*
X118677337Y-35123619D01*
X118666580Y-35096635D01*
X118648114Y-35075543D01*
X118604469Y-35049572D01*
X118556446Y-35047624D01*
X118512406Y-35067637D01*
X118480709Y-35107551D01*
X118476549Y-35117848D01*
X118452327Y-35155724D01*
X118416965Y-35183842D01*
X118372343Y-35206917D01*
X118372343Y-35141485D01*
X118374969Y-35101506D01*
X118386230Y-35069997D01*
X118411199Y-35036378D01*
X118435169Y-35010484D01*
X118472441Y-34973817D01*
X118501401Y-34954121D01*
X118532505Y-34946220D01*
X118567713Y-34944914D01*
X118644876Y-34956335D01*
G37*
X116603910Y-30242348D02*
X116682454Y-30242778D01*
X116739298Y-30243942D01*
X116778105Y-30246207D01*
X116802538Y-30249940D01*
X116816262Y-30255506D01*
X116822940Y-30263273D01*
X116826236Y-30273605D01*
X116826556Y-30274943D01*
X116831562Y-30299079D01*
X116840829Y-30346701D01*
X116853392Y-30412741D01*
X116868287Y-30492128D01*
X116884551Y-30579796D01*
X116885119Y-30582875D01*
X116901410Y-30668789D01*
X116916652Y-30744696D01*
X116929861Y-30806045D01*
X116940054Y-30848282D01*
X116946248Y-30866855D01*
X116946543Y-30867184D01*
X116964788Y-30876253D01*
X117002405Y-30891367D01*
X117051271Y-30909262D01*
X117051543Y-30909358D01*
X117113093Y-30932493D01*
X117185657Y-30961965D01*
X117254057Y-30991597D01*
X117257294Y-30993062D01*
X117368702Y-31043626D01*
X117615399Y-30875160D01*
X117691077Y-30823803D01*
X117759631Y-30777889D01*
X117817088Y-30740030D01*
X117859476Y-30712837D01*
X117882825Y-30698921D01*
X117885042Y-30697889D01*
X117902010Y-30702484D01*
X117933701Y-30724655D01*
X117981352Y-30765447D01*
X118046198Y-30825905D01*
X118112397Y-30890227D01*
X118176214Y-30953612D01*
X118233329Y-31011451D01*
X118280305Y-31060175D01*
X118313703Y-31096210D01*
X118330085Y-31115984D01*
X118330694Y-31117002D01*
X118332505Y-31130572D01*
X118325683Y-31152733D01*
X118308540Y-31186478D01*
X118279393Y-31234800D01*
X118236555Y-31300692D01*
X118179448Y-31385517D01*
X118128766Y-31460177D01*
X118083461Y-31527140D01*
X118046150Y-31582516D01*
X118019452Y-31622420D01*
X118005985Y-31642962D01*
X118005137Y-31644356D01*
X118006781Y-31664038D01*
X118019245Y-31702293D01*
X118040048Y-31751889D01*
X118047462Y-31767728D01*
X118079814Y-31838290D01*
X118114328Y-31918353D01*
X118142365Y-31987629D01*
X118162568Y-32039045D01*
X118178615Y-32078119D01*
X118187888Y-32098541D01*
X118189041Y-32100114D01*
X118206096Y-32102721D01*
X118246298Y-32109863D01*
X118304302Y-32120523D01*
X118374763Y-32133685D01*
X118452335Y-32148333D01*
X118531672Y-32163449D01*
X118607431Y-32178018D01*
X118674264Y-32191022D01*
X118726828Y-32201445D01*
X118759776Y-32208270D01*
X118767857Y-32210199D01*
X118776205Y-32214962D01*
X118782506Y-32225718D01*
X118787045Y-32246098D01*
X118790104Y-32279734D01*
X118791967Y-32330255D01*
X118792918Y-32401292D01*
X118793240Y-32496476D01*
X118793257Y-32535492D01*
X118793257Y-32852799D01*
X118717057Y-32867839D01*
X118674663Y-32875995D01*
X118611400Y-32887899D01*
X118534962Y-32902116D01*
X118453043Y-32917210D01*
X118430400Y-32921355D01*
X118354806Y-32936053D01*
X118288953Y-32950505D01*
X118238366Y-32963375D01*
X118208574Y-32973322D01*
X118203612Y-32976287D01*
X118191426Y-32997283D01*
X118173953Y-33037967D01*
X118154577Y-33090322D01*
X118150734Y-33101600D01*
X118125339Y-33171523D01*
X118093817Y-33250418D01*
X118062969Y-33321266D01*
X118062817Y-33321595D01*
X118011447Y-33432733D01*
X118180399Y-33681253D01*
X118349352Y-33929772D01*
X118132429Y-34147058D01*
X118066819Y-34211726D01*
X118006979Y-34268733D01*
X117956267Y-34315033D01*
X117918046Y-34347584D01*
X117895675Y-34363343D01*
X117892466Y-34364343D01*
X117873626Y-34356469D01*
X117835180Y-34334578D01*
X117781330Y-34301267D01*
X117716276Y-34259131D01*
X117645940Y-34211943D01*
X117574555Y-34163810D01*
X117510908Y-34121928D01*
X117459041Y-34088871D01*
X117422995Y-34067218D01*
X117406867Y-34059543D01*
X117387189Y-34066037D01*
X117349875Y-34083150D01*
X117302621Y-34107326D01*
X117297612Y-34110013D01*
X117233977Y-34141927D01*
X117190341Y-34157579D01*
X117163202Y-34157745D01*
X117149057Y-34143204D01*
X117148975Y-34143000D01*
X117141905Y-34125779D01*
X117125042Y-34084899D01*
X117099695Y-34023525D01*
X117067171Y-33944819D01*
X117028778Y-33851947D01*
X116985822Y-33748072D01*
X116944222Y-33647502D01*
X116898504Y-33536516D01*
X116856526Y-33433703D01*
X116819548Y-33342215D01*
X116788827Y-33265201D01*
X116765622Y-33205815D01*
X116751190Y-33167209D01*
X116746743Y-33152800D01*
X116757896Y-33136272D01*
X116787069Y-33109930D01*
X116825971Y-33080887D01*
X116936757Y-32989039D01*
X117023351Y-32883759D01*
X117084716Y-32767266D01*
X117119815Y-32641776D01*
X117127608Y-32509507D01*
X117121943Y-32448457D01*
X117091078Y-32321795D01*
X117037920Y-32209941D01*
X116965767Y-32114001D01*
X116877917Y-32035076D01*
X116777665Y-31974270D01*
X116668310Y-31932687D01*
X116553147Y-31911428D01*
X116435475Y-31911599D01*
X116318590Y-31934301D01*
X116205789Y-31980638D01*
X116100369Y-32051713D01*
X116056368Y-32091911D01*
X115971979Y-32195129D01*
X115913222Y-32307925D01*
X115879704Y-32427010D01*
X115871035Y-32549095D01*
X115886823Y-32670893D01*
X115926678Y-32789116D01*
X115990207Y-32900475D01*
X116077021Y-33001684D01*
X116174029Y-33080887D01*
X116214437Y-33111162D01*
X116242982Y-33137219D01*
X116253257Y-33152825D01*
X116247877Y-33169843D01*
X116232575Y-33210500D01*
X116208612Y-33271642D01*
X116177244Y-33350119D01*
X116139732Y-33442780D01*
X116097333Y-33546472D01*
X116055663Y-33647526D01*
X116009690Y-33758607D01*
X115967107Y-33861541D01*
X115929221Y-33953165D01*
X115897340Y-34030316D01*
X115872771Y-34089831D01*
X115856820Y-34128544D01*
X115850910Y-34143000D01*
X115836948Y-34157685D01*
X115809940Y-34157642D01*
X115766413Y-34142099D01*
X115702890Y-34110284D01*
X115702388Y-34110013D01*
X115654560Y-34085323D01*
X115615897Y-34067338D01*
X115594095Y-34059614D01*
X115593133Y-34059543D01*
X115576721Y-34067378D01*
X115540487Y-34089165D01*
X115488474Y-34122328D01*
X115424725Y-34164291D01*
X115354060Y-34211943D01*
X115282116Y-34260191D01*
X115217274Y-34302151D01*
X115163735Y-34335227D01*
X115125697Y-34356821D01*
X115107533Y-34364343D01*
X115090808Y-34354457D01*
X115057180Y-34326826D01*
X115010010Y-34284495D01*
X114952658Y-34230505D01*
X114888484Y-34167899D01*
X114867497Y-34146983D01*
X114650499Y-33929623D01*
X114815668Y-33687220D01*
X114865864Y-33612781D01*
X114909919Y-33545972D01*
X114945362Y-33490665D01*
X114969719Y-33450729D01*
X114980522Y-33430036D01*
X114980838Y-33428563D01*
X114975143Y-33409058D01*
X114959826Y-33369822D01*
X114937537Y-33317430D01*
X114921893Y-33282355D01*
X114892641Y-33215201D01*
X114865094Y-33147358D01*
X114843737Y-33090034D01*
X114837935Y-33072572D01*
X114821452Y-33025938D01*
X114805340Y-32989905D01*
X114796490Y-32976287D01*
X114776960Y-32967952D01*
X114734334Y-32956137D01*
X114674145Y-32942181D01*
X114601922Y-32927422D01*
X114569600Y-32921355D01*
X114487522Y-32906273D01*
X114408795Y-32891669D01*
X114341109Y-32878980D01*
X114292160Y-32869642D01*
X114282943Y-32867839D01*
X114206743Y-32852799D01*
X114206743Y-32535492D01*
X114206914Y-32431154D01*
X114207616Y-32352213D01*
X114209134Y-32295038D01*
X114211749Y-32255999D01*
X114215746Y-32231465D01*
X114221409Y-32217805D01*
X114229020Y-32211389D01*
X114232143Y-32210199D01*
X114250978Y-32205980D01*
X114292588Y-32197562D01*
X114351630Y-32185961D01*
X114422757Y-32172195D01*
X114500625Y-32157280D01*
X114579887Y-32142232D01*
X114655198Y-32128069D01*
X114721213Y-32115806D01*
X114772587Y-32106461D01*
X114803975Y-32101050D01*
X114810959Y-32100114D01*
X114817285Y-32087596D01*
X114831290Y-32054246D01*
X114850355Y-32006377D01*
X114857634Y-31987629D01*
X114886996Y-31915195D01*
X114921571Y-31835170D01*
X114952537Y-31767728D01*
X114975323Y-31716159D01*
X114990482Y-31673785D01*
X114995542Y-31647834D01*
X114994736Y-31644356D01*
X114984041Y-31627936D01*
X114959620Y-31591417D01*
X114924095Y-31538687D01*
X114880087Y-31473635D01*
X114830217Y-31400151D01*
X114820356Y-31385645D01*
X114762492Y-31299704D01*
X114719956Y-31234261D01*
X114691054Y-31186304D01*
X114674090Y-31152820D01*
X114667367Y-31130795D01*
X114669190Y-31117217D01*
X114669236Y-31117131D01*
X114683586Y-31099297D01*
X114715323Y-31064817D01*
X114761010Y-31017268D01*
X114817204Y-30960222D01*
X114880468Y-30897255D01*
X114887602Y-30890227D01*
X114967330Y-30813020D01*
X115028857Y-30756330D01*
X115073421Y-30719110D01*
X115102257Y-30700315D01*
X115114958Y-30697889D01*
X115133494Y-30708471D01*
X115171961Y-30732916D01*
X115226386Y-30768612D01*
X115292798Y-30812947D01*
X115367225Y-30863311D01*
X115384601Y-30875160D01*
X115631297Y-31043626D01*
X115742706Y-30993062D01*
X115810457Y-30963595D01*
X115883183Y-30933959D01*
X115945703Y-30910330D01*
X115948457Y-30909358D01*
X115997360Y-30891457D01*
X116035057Y-30876320D01*
X116053425Y-30867210D01*
X116053456Y-30867184D01*
X116059285Y-30850717D01*
X116069192Y-30810219D01*
X116082195Y-30750242D01*
X116097309Y-30675340D01*
X116113552Y-30590064D01*
X116114881Y-30582875D01*
X116131175Y-30495014D01*
X116146133Y-30415260D01*
X116158791Y-30348681D01*
X116168186Y-30300347D01*
X116173354Y-30275325D01*
X116173444Y-30274943D01*
X116176589Y-30264299D01*
X116182704Y-30256262D01*
X116195453Y-30250467D01*
X116218500Y-30246547D01*
X116255509Y-30244135D01*
X116310144Y-30242865D01*
X116386067Y-30242371D01*
X116486944Y-30242286D01*
X116500000Y-30242286D01*
X116603910Y-30242348D01*
G36*
X116603910Y-30242348D02*
G01*
X116682454Y-30242778D01*
X116739298Y-30243942D01*
X116778105Y-30246207D01*
X116802538Y-30249940D01*
X116816262Y-30255506D01*
X116822940Y-30263273D01*
X116826236Y-30273605D01*
X116826556Y-30274943D01*
X116831562Y-30299079D01*
X116840829Y-30346701D01*
X116853392Y-30412741D01*
X116868287Y-30492128D01*
X116884551Y-30579796D01*
X116885119Y-30582875D01*
X116901410Y-30668789D01*
X116916652Y-30744696D01*
X116929861Y-30806045D01*
X116940054Y-30848282D01*
X116946248Y-30866855D01*
X116946543Y-30867184D01*
X116964788Y-30876253D01*
X117002405Y-30891367D01*
X117051271Y-30909262D01*
X117051543Y-30909358D01*
X117113093Y-30932493D01*
X117185657Y-30961965D01*
X117254057Y-30991597D01*
X117257294Y-30993062D01*
X117368702Y-31043626D01*
X117615399Y-30875160D01*
X117691077Y-30823803D01*
X117759631Y-30777889D01*
X117817088Y-30740030D01*
X117859476Y-30712837D01*
X117882825Y-30698921D01*
X117885042Y-30697889D01*
X117902010Y-30702484D01*
X117933701Y-30724655D01*
X117981352Y-30765447D01*
X118046198Y-30825905D01*
X118112397Y-30890227D01*
X118176214Y-30953612D01*
X118233329Y-31011451D01*
X118280305Y-31060175D01*
X118313703Y-31096210D01*
X118330085Y-31115984D01*
X118330694Y-31117002D01*
X118332505Y-31130572D01*
X118325683Y-31152733D01*
X118308540Y-31186478D01*
X118279393Y-31234800D01*
X118236555Y-31300692D01*
X118179448Y-31385517D01*
X118128766Y-31460177D01*
X118083461Y-31527140D01*
X118046150Y-31582516D01*
X118019452Y-31622420D01*
X118005985Y-31642962D01*
X118005137Y-31644356D01*
X118006781Y-31664038D01*
X118019245Y-31702293D01*
X118040048Y-31751889D01*
X118047462Y-31767728D01*
X118079814Y-31838290D01*
X118114328Y-31918353D01*
X118142365Y-31987629D01*
X118162568Y-32039045D01*
X118178615Y-32078119D01*
X118187888Y-32098541D01*
X118189041Y-32100114D01*
X118206096Y-32102721D01*
X118246298Y-32109863D01*
X118304302Y-32120523D01*
X118374763Y-32133685D01*
X118452335Y-32148333D01*
X118531672Y-32163449D01*
X118607431Y-32178018D01*
X118674264Y-32191022D01*
X118726828Y-32201445D01*
X118759776Y-32208270D01*
X118767857Y-32210199D01*
X118776205Y-32214962D01*
X118782506Y-32225718D01*
X118787045Y-32246098D01*
X118790104Y-32279734D01*
X118791967Y-32330255D01*
X118792918Y-32401292D01*
X118793240Y-32496476D01*
X118793257Y-32535492D01*
X118793257Y-32852799D01*
X118717057Y-32867839D01*
X118674663Y-32875995D01*
X118611400Y-32887899D01*
X118534962Y-32902116D01*
X118453043Y-32917210D01*
X118430400Y-32921355D01*
X118354806Y-32936053D01*
X118288953Y-32950505D01*
X118238366Y-32963375D01*
X118208574Y-32973322D01*
X118203612Y-32976287D01*
X118191426Y-32997283D01*
X118173953Y-33037967D01*
X118154577Y-33090322D01*
X118150734Y-33101600D01*
X118125339Y-33171523D01*
X118093817Y-33250418D01*
X118062969Y-33321266D01*
X118062817Y-33321595D01*
X118011447Y-33432733D01*
X118180399Y-33681253D01*
X118349352Y-33929772D01*
X118132429Y-34147058D01*
X118066819Y-34211726D01*
X118006979Y-34268733D01*
X117956267Y-34315033D01*
X117918046Y-34347584D01*
X117895675Y-34363343D01*
X117892466Y-34364343D01*
X117873626Y-34356469D01*
X117835180Y-34334578D01*
X117781330Y-34301267D01*
X117716276Y-34259131D01*
X117645940Y-34211943D01*
X117574555Y-34163810D01*
X117510908Y-34121928D01*
X117459041Y-34088871D01*
X117422995Y-34067218D01*
X117406867Y-34059543D01*
X117387189Y-34066037D01*
X117349875Y-34083150D01*
X117302621Y-34107326D01*
X117297612Y-34110013D01*
X117233977Y-34141927D01*
X117190341Y-34157579D01*
X117163202Y-34157745D01*
X117149057Y-34143204D01*
X117148975Y-34143000D01*
X117141905Y-34125779D01*
X117125042Y-34084899D01*
X117099695Y-34023525D01*
X117067171Y-33944819D01*
X117028778Y-33851947D01*
X116985822Y-33748072D01*
X116944222Y-33647502D01*
X116898504Y-33536516D01*
X116856526Y-33433703D01*
X116819548Y-33342215D01*
X116788827Y-33265201D01*
X116765622Y-33205815D01*
X116751190Y-33167209D01*
X116746743Y-33152800D01*
X116757896Y-33136272D01*
X116787069Y-33109930D01*
X116825971Y-33080887D01*
X116936757Y-32989039D01*
X117023351Y-32883759D01*
X117084716Y-32767266D01*
X117119815Y-32641776D01*
X117127608Y-32509507D01*
X117121943Y-32448457D01*
X117091078Y-32321795D01*
X117037920Y-32209941D01*
X116965767Y-32114001D01*
X116877917Y-32035076D01*
X116777665Y-31974270D01*
X116668310Y-31932687D01*
X116553147Y-31911428D01*
X116435475Y-31911599D01*
X116318590Y-31934301D01*
X116205789Y-31980638D01*
X116100369Y-32051713D01*
X116056368Y-32091911D01*
X115971979Y-32195129D01*
X115913222Y-32307925D01*
X115879704Y-32427010D01*
X115871035Y-32549095D01*
X115886823Y-32670893D01*
X115926678Y-32789116D01*
X115990207Y-32900475D01*
X116077021Y-33001684D01*
X116174029Y-33080887D01*
X116214437Y-33111162D01*
X116242982Y-33137219D01*
X116253257Y-33152825D01*
X116247877Y-33169843D01*
X116232575Y-33210500D01*
X116208612Y-33271642D01*
X116177244Y-33350119D01*
X116139732Y-33442780D01*
X116097333Y-33546472D01*
X116055663Y-33647526D01*
X116009690Y-33758607D01*
X115967107Y-33861541D01*
X115929221Y-33953165D01*
X115897340Y-34030316D01*
X115872771Y-34089831D01*
X115856820Y-34128544D01*
X115850910Y-34143000D01*
X115836948Y-34157685D01*
X115809940Y-34157642D01*
X115766413Y-34142099D01*
X115702890Y-34110284D01*
X115702388Y-34110013D01*
X115654560Y-34085323D01*
X115615897Y-34067338D01*
X115594095Y-34059614D01*
X115593133Y-34059543D01*
X115576721Y-34067378D01*
X115540487Y-34089165D01*
X115488474Y-34122328D01*
X115424725Y-34164291D01*
X115354060Y-34211943D01*
X115282116Y-34260191D01*
X115217274Y-34302151D01*
X115163735Y-34335227D01*
X115125697Y-34356821D01*
X115107533Y-34364343D01*
X115090808Y-34354457D01*
X115057180Y-34326826D01*
X115010010Y-34284495D01*
X114952658Y-34230505D01*
X114888484Y-34167899D01*
X114867497Y-34146983D01*
X114650499Y-33929623D01*
X114815668Y-33687220D01*
X114865864Y-33612781D01*
X114909919Y-33545972D01*
X114945362Y-33490665D01*
X114969719Y-33450729D01*
X114980522Y-33430036D01*
X114980838Y-33428563D01*
X114975143Y-33409058D01*
X114959826Y-33369822D01*
X114937537Y-33317430D01*
X114921893Y-33282355D01*
X114892641Y-33215201D01*
X114865094Y-33147358D01*
X114843737Y-33090034D01*
X114837935Y-33072572D01*
X114821452Y-33025938D01*
X114805340Y-32989905D01*
X114796490Y-32976287D01*
X114776960Y-32967952D01*
X114734334Y-32956137D01*
X114674145Y-32942181D01*
X114601922Y-32927422D01*
X114569600Y-32921355D01*
X114487522Y-32906273D01*
X114408795Y-32891669D01*
X114341109Y-32878980D01*
X114292160Y-32869642D01*
X114282943Y-32867839D01*
X114206743Y-32852799D01*
X114206743Y-32535492D01*
X114206914Y-32431154D01*
X114207616Y-32352213D01*
X114209134Y-32295038D01*
X114211749Y-32255999D01*
X114215746Y-32231465D01*
X114221409Y-32217805D01*
X114229020Y-32211389D01*
X114232143Y-32210199D01*
X114250978Y-32205980D01*
X114292588Y-32197562D01*
X114351630Y-32185961D01*
X114422757Y-32172195D01*
X114500625Y-32157280D01*
X114579887Y-32142232D01*
X114655198Y-32128069D01*
X114721213Y-32115806D01*
X114772587Y-32106461D01*
X114803975Y-32101050D01*
X114810959Y-32100114D01*
X114817285Y-32087596D01*
X114831290Y-32054246D01*
X114850355Y-32006377D01*
X114857634Y-31987629D01*
X114886996Y-31915195D01*
X114921571Y-31835170D01*
X114952537Y-31767728D01*
X114975323Y-31716159D01*
X114990482Y-31673785D01*
X114995542Y-31647834D01*
X114994736Y-31644356D01*
X114984041Y-31627936D01*
X114959620Y-31591417D01*
X114924095Y-31538687D01*
X114880087Y-31473635D01*
X114830217Y-31400151D01*
X114820356Y-31385645D01*
X114762492Y-31299704D01*
X114719956Y-31234261D01*
X114691054Y-31186304D01*
X114674090Y-31152820D01*
X114667367Y-31130795D01*
X114669190Y-31117217D01*
X114669236Y-31117131D01*
X114683586Y-31099297D01*
X114715323Y-31064817D01*
X114761010Y-31017268D01*
X114817204Y-30960222D01*
X114880468Y-30897255D01*
X114887602Y-30890227D01*
X114967330Y-30813020D01*
X115028857Y-30756330D01*
X115073421Y-30719110D01*
X115102257Y-30700315D01*
X115114958Y-30697889D01*
X115133494Y-30708471D01*
X115171961Y-30732916D01*
X115226386Y-30768612D01*
X115292798Y-30812947D01*
X115367225Y-30863311D01*
X115384601Y-30875160D01*
X115631297Y-31043626D01*
X115742706Y-30993062D01*
X115810457Y-30963595D01*
X115883183Y-30933959D01*
X115945703Y-30910330D01*
X115948457Y-30909358D01*
X115997360Y-30891457D01*
X116035057Y-30876320D01*
X116053425Y-30867210D01*
X116053456Y-30867184D01*
X116059285Y-30850717D01*
X116069192Y-30810219D01*
X116082195Y-30750242D01*
X116097309Y-30675340D01*
X116113552Y-30590064D01*
X116114881Y-30582875D01*
X116131175Y-30495014D01*
X116146133Y-30415260D01*
X116158791Y-30348681D01*
X116168186Y-30300347D01*
X116173354Y-30275325D01*
X116173444Y-30274943D01*
X116176589Y-30264299D01*
X116182704Y-30256262D01*
X116195453Y-30250467D01*
X116218500Y-30246547D01*
X116255509Y-30244135D01*
X116310144Y-30242865D01*
X116386067Y-30242371D01*
X116486944Y-30242286D01*
X116500000Y-30242286D01*
X116603910Y-30242348D01*
G37*
D12*
%TO.C,R1*%
X112630000Y-41730000D02*
X112630000Y-48270000D01*
X112630000Y-48270000D02*
X115370000Y-48270000D01*
X114000000Y-40960000D02*
X114000000Y-41730000D01*
X114000000Y-49040000D02*
X114000000Y-48270000D01*
X115370000Y-41730000D02*
X112630000Y-41730000D01*
X115370000Y-48270000D02*
X115370000Y-41730000D01*
%TO.C,BT1*%
X94670000Y-30670000D02*
X94670000Y-33330000D01*
X97270000Y-30670000D02*
X94670000Y-30670000D01*
X97270000Y-30670000D02*
X97270000Y-33330000D01*
X97270000Y-33330000D02*
X94670000Y-33330000D01*
X98540000Y-30670000D02*
X99870000Y-30670000D01*
X99870000Y-30670000D02*
X99870000Y-32000000D01*
%TO.C,C2*%
X95580000Y-43980000D02*
X95580000Y-48020000D01*
X95580000Y-48020000D02*
X98420000Y-48020000D01*
X97000000Y-43290000D02*
X97000000Y-43980000D01*
X97000000Y-48710000D02*
X97000000Y-48020000D01*
X98420000Y-43980000D02*
X95580000Y-43980000D01*
X98420000Y-48020000D02*
X98420000Y-43980000D01*
%TD*%
M02*
