%TF.GenerationSoftware,KiCad,Pcbnew,9.0.0*%
%TF.CreationDate,2025-02-26T16:47:43+09:00*%
%TF.ProjectId,TCIS,54434953-2e6b-4696-9361-645f70636258,rev?*%
%TF.SameCoordinates,Original*%
%TF.FileFunction,Profile,NP*%
%FSLAX46Y46*%
G04 Gerber Fmt 4.6, Leading zero omitted, Abs format (unit mm)*
G04 Created by KiCad (PCBNEW 9.0.0) date 2025-02-26 16:47:43*
%MOMM*%
%LPD*%
G01*
G04 APERTURE LIST*
%ADD10C,0.300000*%
%TA.AperFunction,Profile*%
%ADD11C,0.300000*%
%TD*%
G04 APERTURE END LIST*
D10*
X121000000Y-80000000D02*
X120999990Y-80010944D01*
X120999960Y-80021869D01*
X120999910Y-80032773D01*
X120999840Y-80043658D01*
X120999751Y-80054523D01*
X120999641Y-80065368D01*
X120999512Y-80076193D01*
X120999363Y-80086998D01*
X120999194Y-80097784D01*
X120999006Y-80108550D01*
X120998798Y-80119296D01*
X120998570Y-80130023D01*
X120998323Y-80140730D01*
X120998057Y-80151417D01*
X120997770Y-80162085D01*
X120997465Y-80172734D01*
X120997140Y-80183363D01*
X120996795Y-80193973D01*
X120996431Y-80204563D01*
X120996048Y-80215134D01*
X120995645Y-80225686D01*
X120995224Y-80236218D01*
X120994783Y-80246732D01*
X120994322Y-80257225D01*
X120993843Y-80267700D01*
X120993345Y-80278156D01*
X120992827Y-80288593D01*
X120992291Y-80299010D01*
X120991735Y-80309409D01*
X120991160Y-80319789D01*
X120990567Y-80330150D01*
X120989954Y-80340491D01*
X120989323Y-80350814D01*
X120988672Y-80361118D01*
X120988003Y-80371404D01*
X120987315Y-80381670D01*
X120986609Y-80391918D01*
X120985883Y-80402147D01*
X120985139Y-80412358D01*
X120984376Y-80422549D01*
X120983595Y-80432723D01*
X120982795Y-80442877D01*
X120981976Y-80453014D01*
X120981139Y-80463131D01*
X120980283Y-80473231D01*
X120979409Y-80483312D01*
X120978516Y-80493374D01*
X120977605Y-80503418D01*
X120976675Y-80513444D01*
X120975727Y-80523452D01*
X120974761Y-80533441D01*
X120973777Y-80543412D01*
X120972774Y-80553365D01*
X120971753Y-80563300D01*
X120970713Y-80573217D01*
X120969656Y-80583115D01*
X120968580Y-80592996D01*
X120967486Y-80602858D01*
X120966374Y-80612704D01*
X120965244Y-80622530D01*
X120964096Y-80632339D01*
X120962930Y-80642129D01*
X120961746Y-80651903D01*
X120960544Y-80661658D01*
X120959324Y-80671396D01*
X120958086Y-80681115D01*
X120956830Y-80690818D01*
X120955557Y-80700502D01*
X120954265Y-80710170D01*
X120952956Y-80719818D01*
X120951629Y-80729451D01*
X120950284Y-80739064D01*
X120948921Y-80748662D01*
X120947541Y-80758240D01*
X120946143Y-80767803D01*
X120944728Y-80777346D01*
X120943294Y-80786874D01*
X120941844Y-80796383D01*
X120940375Y-80805877D01*
X120938889Y-80815351D01*
X120937386Y-80824810D01*
X120935865Y-80834250D01*
X120934326Y-80843674D01*
X120932771Y-80853080D01*
X120931197Y-80862470D01*
X120929607Y-80871842D01*
X120927998Y-80881198D01*
X120926373Y-80890535D01*
X120924730Y-80899858D01*
X120923070Y-80909161D01*
X120921393Y-80918450D01*
X120919699Y-80927719D01*
X120917987Y-80936974D01*
X120916258Y-80946210D01*
X120914511Y-80955432D01*
X120912748Y-80964634D01*
X120910967Y-80973822D01*
X120909170Y-80982991D01*
X120907355Y-80992146D01*
X120905524Y-81001282D01*
X120903675Y-81010403D01*
X120901809Y-81019506D01*
X120899926Y-81028594D01*
X120898026Y-81037664D01*
X120896109Y-81046719D01*
X120894175Y-81055756D01*
X120892225Y-81064779D01*
X120890257Y-81073783D01*
X120888272Y-81082773D01*
X120886271Y-81091745D01*
X120884253Y-81100702D01*
X120882218Y-81109641D01*
X120880166Y-81118566D01*
X120878098Y-81127473D01*
X120876012Y-81136366D01*
X120873910Y-81145240D01*
X120871791Y-81154101D01*
X120869656Y-81162943D01*
X120867503Y-81171771D01*
X120865335Y-81180582D01*
X120863149Y-81189378D01*
X120860947Y-81198156D01*
X120858728Y-81206921D01*
X120856493Y-81215668D01*
X120854241Y-81224401D01*
X120851973Y-81233116D01*
X120849687Y-81241818D01*
X120847386Y-81250501D01*
X120845068Y-81259171D01*
X120842734Y-81267823D01*
X120840382Y-81276462D01*
X120838015Y-81285083D01*
X120835631Y-81293690D01*
X120833231Y-81302280D01*
X120830814Y-81310857D01*
X120828381Y-81319415D01*
X120825931Y-81327961D01*
X120823466Y-81336488D01*
X120820984Y-81345003D01*
X120818485Y-81353500D01*
X120815970Y-81361984D01*
X120813440Y-81370450D01*
X120810892Y-81378903D01*
X120808329Y-81387339D01*
X120805748Y-81395762D01*
X120803153Y-81404167D01*
X120800540Y-81412559D01*
X120797912Y-81420934D01*
X120795267Y-81429296D01*
X120792607Y-81437641D01*
X120787236Y-81454287D01*
X120781802Y-81470873D01*
X120776303Y-81487400D01*
X120770739Y-81503867D01*
X120765111Y-81520274D01*
X120759420Y-81536623D01*
X120753664Y-81552912D01*
X120747844Y-81569143D01*
X120741960Y-81585315D01*
X120736013Y-81601429D01*
X120730002Y-81617485D01*
X120723927Y-81633483D01*
X120717789Y-81649423D01*
X120711588Y-81665305D01*
X120705323Y-81681131D01*
X120698994Y-81696899D01*
X120692603Y-81712611D01*
X120686148Y-81728266D01*
X120679630Y-81743864D01*
X120673049Y-81759406D01*
X120666406Y-81774892D01*
X120659699Y-81790323D01*
X120652929Y-81805697D01*
X120646097Y-81821016D01*
X120639202Y-81836280D01*
X120632244Y-81851489D01*
X120625223Y-81866643D01*
X120618140Y-81881742D01*
X120610994Y-81896786D01*
X120603786Y-81911776D01*
X120596515Y-81926712D01*
X120589181Y-81941594D01*
X120581785Y-81956422D01*
X120574326Y-81971196D01*
X120566806Y-81985917D01*
X120559222Y-82000585D01*
X120551576Y-82015199D01*
X120543868Y-82029761D01*
X120536098Y-82044269D01*
X120528265Y-82058725D01*
X120520369Y-82073129D01*
X120512412Y-82087480D01*
X120504392Y-82101779D01*
X120496309Y-82116025D01*
X120488164Y-82130220D01*
X120479957Y-82144363D01*
X120471688Y-82158455D01*
X120463356Y-82172495D01*
X120454961Y-82186484D01*
X120446504Y-82200422D01*
X120437985Y-82214308D01*
X120429403Y-82228144D01*
X120420759Y-82241929D01*
X120412053Y-82255664D01*
X120403283Y-82269348D01*
X120394451Y-82282981D01*
X120385557Y-82296565D01*
X120376600Y-82310098D01*
X120367580Y-82323581D01*
X120358498Y-82337014D01*
X120349352Y-82350398D01*
X120340144Y-82363732D01*
X120330874Y-82377017D01*
X120321540Y-82390252D01*
X120312143Y-82403437D01*
X120302683Y-82416574D01*
X120293161Y-82429662D01*
X120283575Y-82442700D01*
X120273926Y-82455690D01*
X120264214Y-82468630D01*
X120254438Y-82481522D01*
X120244599Y-82494366D01*
X120234697Y-82507161D01*
X120224731Y-82519907D01*
X120214702Y-82532605D01*
X120204609Y-82545255D01*
X120194453Y-82557857D01*
X120184232Y-82570410D01*
X120173948Y-82582916D01*
X120163600Y-82595373D01*
X120153188Y-82607783D01*
X120142712Y-82620145D01*
X120132171Y-82632459D01*
X120121567Y-82644725D01*
X120110898Y-82656943D01*
X120100165Y-82669114D01*
X120089367Y-82681238D01*
X120078504Y-82693313D01*
X120067577Y-82705342D01*
X120056585Y-82717323D01*
X120045528Y-82729256D01*
X120034407Y-82741142D01*
X120023220Y-82752981D01*
X120011968Y-82764773D01*
X120000650Y-82776517D01*
X119989268Y-82788214D01*
X119977820Y-82799864D01*
X119966306Y-82811467D01*
X119954726Y-82823023D01*
X119943081Y-82834531D01*
X119931370Y-82845993D01*
X119919593Y-82857407D01*
X119907750Y-82868774D01*
X119895841Y-82880094D01*
X119883865Y-82891367D01*
X119871823Y-82902593D01*
X119859714Y-82913771D01*
X119847539Y-82924903D01*
X119835297Y-82935987D01*
X119822988Y-82947025D01*
X119810612Y-82958015D01*
X119798169Y-82968958D01*
X119785658Y-82979853D01*
X119773081Y-82990702D01*
X119760436Y-83001503D01*
X119747723Y-83012257D01*
X119734943Y-83022964D01*
X119722095Y-83033623D01*
X119709180Y-83044235D01*
X119696196Y-83054799D01*
X119683144Y-83065316D01*
X119670024Y-83075786D01*
X119656835Y-83086207D01*
X119643579Y-83096581D01*
X119630253Y-83106908D01*
X119616859Y-83117186D01*
X119603397Y-83127417D01*
X119589865Y-83137600D01*
X119576264Y-83147735D01*
X119562595Y-83157822D01*
X119548856Y-83167860D01*
X119535048Y-83177851D01*
X119521171Y-83187793D01*
X119507224Y-83197686D01*
X119493207Y-83207531D01*
X119479121Y-83217328D01*
X119464965Y-83227076D01*
X119450740Y-83236775D01*
X119436444Y-83246425D01*
X119422079Y-83256026D01*
X119407643Y-83265578D01*
X119393137Y-83275081D01*
X119378561Y-83284535D01*
X119363914Y-83293938D01*
X119349197Y-83303293D01*
X119334410Y-83312597D01*
X119319552Y-83321852D01*
X119304624Y-83331057D01*
X119289624Y-83340211D01*
X119274554Y-83349316D01*
X119259414Y-83358369D01*
X119244202Y-83367373D01*
X119228919Y-83376325D01*
X119213566Y-83385227D01*
X119198142Y-83394077D01*
X119182646Y-83402877D01*
X119167080Y-83411625D01*
X119151442Y-83420321D01*
X119135734Y-83428965D01*
X119119954Y-83437558D01*
X119104103Y-83446099D01*
X119088182Y-83454587D01*
X119072189Y-83463023D01*
X119056125Y-83471406D01*
X119039990Y-83479736D01*
X119023784Y-83488013D01*
X119007507Y-83496237D01*
X118991159Y-83504408D01*
X118974740Y-83512524D01*
X118958250Y-83520587D01*
X118941690Y-83528596D01*
X118925059Y-83536550D01*
X118908357Y-83544450D01*
X118891584Y-83552294D01*
X118874742Y-83560084D01*
X118857828Y-83567819D01*
X118840845Y-83575498D01*
X118823791Y-83583121D01*
X118806668Y-83590688D01*
X118789475Y-83598199D01*
X118772212Y-83605653D01*
X118754880Y-83613050D01*
X118737478Y-83620391D01*
X118720008Y-83627674D01*
X118702468Y-83634899D01*
X118684860Y-83642066D01*
X118667184Y-83649176D01*
X118649439Y-83656226D01*
X118631627Y-83663218D01*
X118613747Y-83670151D01*
X118595801Y-83677025D01*
X118577787Y-83683839D01*
X118559706Y-83690592D01*
X118541560Y-83697286D01*
X118523348Y-83703919D01*
X118505070Y-83710491D01*
X118486728Y-83717001D01*
X118468321Y-83723450D01*
X118449850Y-83729838D01*
X118431316Y-83736162D01*
X118412718Y-83742425D01*
X118394059Y-83748624D01*
X118375337Y-83754760D01*
X118356555Y-83760832D01*
X118337712Y-83766840D01*
X118318809Y-83772783D01*
X118299847Y-83778662D01*
X118280827Y-83784476D01*
X118261749Y-83790224D01*
X118242614Y-83795906D01*
X118223423Y-83801521D01*
X118204178Y-83807070D01*
X118184878Y-83812552D01*
X118165526Y-83817966D01*
X118146121Y-83823312D01*
X118126666Y-83828590D01*
X118107160Y-83833799D01*
X118087607Y-83838938D01*
X118068006Y-83844008D01*
X118048358Y-83849008D01*
X118028667Y-83853937D01*
X118008932Y-83858795D01*
X117989156Y-83863581D01*
X117969339Y-83868296D01*
X117949485Y-83872938D01*
X117929594Y-83877507D01*
X117909668Y-83882002D01*
X117889709Y-83886424D01*
X117869720Y-83890771D01*
X117849702Y-83895043D01*
X117829658Y-83899240D01*
X117809590Y-83903361D01*
X117789501Y-83907405D01*
X117769393Y-83911372D01*
X117749269Y-83915261D01*
X117729132Y-83919073D01*
X117708986Y-83922805D01*
X117688833Y-83926459D01*
X117668676Y-83930032D01*
X117648521Y-83933525D01*
X117628370Y-83936937D01*
X117608227Y-83940268D01*
X117588098Y-83943516D01*
X117567986Y-83946681D01*
X117547897Y-83949763D01*
X117527837Y-83952761D01*
X117507809Y-83955674D01*
X117487822Y-83958501D01*
X117467881Y-83961242D01*
X117447993Y-83963897D01*
X117428166Y-83966464D01*
X117408407Y-83968943D01*
X117388726Y-83971333D01*
X117369131Y-83973634D01*
X117349634Y-83975844D01*
X117330244Y-83977963D01*
X117310975Y-83979990D01*
X117291840Y-83981925D01*
X117272852Y-83983766D01*
X117254029Y-83985513D01*
X117235389Y-83987165D01*
X117216950Y-83988721D01*
X117198736Y-83990180D01*
X117180773Y-83991542D01*
X117163089Y-83992805D01*
X117145719Y-83993969D01*
X117128700Y-83995033D01*
X117112080Y-83995996D01*
X117095914Y-83996856D01*
X117080271Y-83997614D01*
X117065234Y-83998267D01*
X117050916Y-83998817D01*
X117037466Y-83999260D01*
X117025101Y-83999599D01*
X117014165Y-83999832D01*
X117005295Y-83999962D01*
X117000000Y-84000000D01*
D11*
X91000000Y-80000000D02*
X91000000Y-33000000D01*
X121000000Y-33000000D02*
X121000000Y-80000000D01*
D10*
X95000000Y-84000000D02*
X94989056Y-83999990D01*
X94978131Y-83999960D01*
X94967227Y-83999910D01*
X94956342Y-83999840D01*
X94945477Y-83999751D01*
X94934632Y-83999641D01*
X94923807Y-83999512D01*
X94913002Y-83999363D01*
X94902216Y-83999194D01*
X94891450Y-83999006D01*
X94880704Y-83998798D01*
X94869977Y-83998570D01*
X94859270Y-83998323D01*
X94848583Y-83998057D01*
X94837915Y-83997770D01*
X94827266Y-83997465D01*
X94816637Y-83997140D01*
X94806027Y-83996795D01*
X94795437Y-83996431D01*
X94784866Y-83996048D01*
X94774314Y-83995645D01*
X94763782Y-83995224D01*
X94753268Y-83994783D01*
X94742775Y-83994322D01*
X94732300Y-83993843D01*
X94721844Y-83993345D01*
X94711407Y-83992827D01*
X94700990Y-83992291D01*
X94690591Y-83991735D01*
X94680211Y-83991160D01*
X94669850Y-83990567D01*
X94659509Y-83989954D01*
X94649186Y-83989323D01*
X94638882Y-83988672D01*
X94628596Y-83988003D01*
X94618330Y-83987315D01*
X94608082Y-83986609D01*
X94597853Y-83985883D01*
X94587642Y-83985139D01*
X94577451Y-83984376D01*
X94567277Y-83983595D01*
X94557123Y-83982795D01*
X94546986Y-83981976D01*
X94536869Y-83981139D01*
X94526769Y-83980283D01*
X94516688Y-83979409D01*
X94506626Y-83978516D01*
X94496582Y-83977605D01*
X94486556Y-83976675D01*
X94476548Y-83975727D01*
X94466559Y-83974761D01*
X94456588Y-83973777D01*
X94446635Y-83972774D01*
X94436700Y-83971753D01*
X94426783Y-83970713D01*
X94416885Y-83969656D01*
X94407004Y-83968580D01*
X94397142Y-83967486D01*
X94387296Y-83966374D01*
X94377470Y-83965244D01*
X94367661Y-83964096D01*
X94357871Y-83962930D01*
X94348097Y-83961746D01*
X94338342Y-83960544D01*
X94328604Y-83959324D01*
X94318885Y-83958086D01*
X94309182Y-83956830D01*
X94299498Y-83955557D01*
X94289830Y-83954265D01*
X94280182Y-83952956D01*
X94270549Y-83951629D01*
X94260936Y-83950284D01*
X94251338Y-83948921D01*
X94241760Y-83947541D01*
X94232197Y-83946143D01*
X94222654Y-83944728D01*
X94213126Y-83943294D01*
X94203617Y-83941844D01*
X94194123Y-83940375D01*
X94184649Y-83938889D01*
X94175190Y-83937386D01*
X94165750Y-83935865D01*
X94156326Y-83934326D01*
X94146920Y-83932771D01*
X94137530Y-83931197D01*
X94128158Y-83929607D01*
X94118802Y-83927998D01*
X94109465Y-83926373D01*
X94100142Y-83924730D01*
X94090839Y-83923070D01*
X94081550Y-83921393D01*
X94072281Y-83919699D01*
X94063026Y-83917987D01*
X94053790Y-83916258D01*
X94044568Y-83914511D01*
X94035366Y-83912748D01*
X94026178Y-83910967D01*
X94017009Y-83909170D01*
X94007854Y-83907355D01*
X93998718Y-83905524D01*
X93989597Y-83903675D01*
X93980494Y-83901809D01*
X93971406Y-83899926D01*
X93962336Y-83898026D01*
X93953281Y-83896109D01*
X93944244Y-83894175D01*
X93935221Y-83892225D01*
X93926217Y-83890257D01*
X93917227Y-83888272D01*
X93908255Y-83886271D01*
X93899298Y-83884253D01*
X93890359Y-83882218D01*
X93881434Y-83880166D01*
X93872527Y-83878098D01*
X93863634Y-83876012D01*
X93854760Y-83873910D01*
X93845899Y-83871791D01*
X93837057Y-83869656D01*
X93828229Y-83867503D01*
X93819418Y-83865335D01*
X93810622Y-83863149D01*
X93801844Y-83860947D01*
X93793079Y-83858728D01*
X93784332Y-83856493D01*
X93775599Y-83854241D01*
X93766884Y-83851973D01*
X93758182Y-83849687D01*
X93749499Y-83847386D01*
X93740829Y-83845068D01*
X93732177Y-83842734D01*
X93723538Y-83840382D01*
X93714917Y-83838015D01*
X93706310Y-83835631D01*
X93697720Y-83833231D01*
X93689143Y-83830814D01*
X93680585Y-83828381D01*
X93672039Y-83825931D01*
X93663512Y-83823466D01*
X93654997Y-83820984D01*
X93646500Y-83818485D01*
X93638016Y-83815970D01*
X93629550Y-83813440D01*
X93621097Y-83810892D01*
X93612661Y-83808329D01*
X93604238Y-83805748D01*
X93595833Y-83803153D01*
X93587441Y-83800540D01*
X93579066Y-83797912D01*
X93570704Y-83795267D01*
X93562359Y-83792607D01*
X93545713Y-83787236D01*
X93529127Y-83781802D01*
X93512600Y-83776303D01*
X93496133Y-83770739D01*
X93479726Y-83765111D01*
X93463377Y-83759420D01*
X93447088Y-83753664D01*
X93430857Y-83747844D01*
X93414685Y-83741960D01*
X93398571Y-83736013D01*
X93382515Y-83730002D01*
X93366517Y-83723927D01*
X93350577Y-83717789D01*
X93334695Y-83711588D01*
X93318869Y-83705323D01*
X93303101Y-83698994D01*
X93287389Y-83692603D01*
X93271734Y-83686148D01*
X93256136Y-83679630D01*
X93240594Y-83673049D01*
X93225108Y-83666406D01*
X93209677Y-83659699D01*
X93194303Y-83652929D01*
X93178984Y-83646097D01*
X93163720Y-83639202D01*
X93148511Y-83632244D01*
X93133357Y-83625223D01*
X93118258Y-83618140D01*
X93103214Y-83610994D01*
X93088224Y-83603786D01*
X93073288Y-83596515D01*
X93058406Y-83589181D01*
X93043578Y-83581785D01*
X93028804Y-83574326D01*
X93014083Y-83566806D01*
X92999415Y-83559222D01*
X92984801Y-83551576D01*
X92970239Y-83543868D01*
X92955731Y-83536098D01*
X92941275Y-83528265D01*
X92926871Y-83520369D01*
X92912520Y-83512412D01*
X92898221Y-83504392D01*
X92883975Y-83496309D01*
X92869780Y-83488164D01*
X92855637Y-83479957D01*
X92841545Y-83471688D01*
X92827505Y-83463356D01*
X92813516Y-83454961D01*
X92799578Y-83446504D01*
X92785692Y-83437985D01*
X92771856Y-83429403D01*
X92758071Y-83420759D01*
X92744336Y-83412053D01*
X92730652Y-83403283D01*
X92717019Y-83394451D01*
X92703435Y-83385557D01*
X92689902Y-83376600D01*
X92676419Y-83367580D01*
X92662986Y-83358498D01*
X92649602Y-83349352D01*
X92636268Y-83340144D01*
X92622983Y-83330874D01*
X92609748Y-83321540D01*
X92596563Y-83312143D01*
X92583426Y-83302683D01*
X92570338Y-83293161D01*
X92557300Y-83283575D01*
X92544310Y-83273926D01*
X92531370Y-83264214D01*
X92518478Y-83254438D01*
X92505634Y-83244599D01*
X92492839Y-83234697D01*
X92480093Y-83224731D01*
X92467395Y-83214702D01*
X92454745Y-83204609D01*
X92442143Y-83194453D01*
X92429590Y-83184232D01*
X92417084Y-83173948D01*
X92404627Y-83163600D01*
X92392217Y-83153188D01*
X92379855Y-83142712D01*
X92367541Y-83132171D01*
X92355275Y-83121567D01*
X92343057Y-83110898D01*
X92330886Y-83100165D01*
X92318762Y-83089367D01*
X92306687Y-83078504D01*
X92294658Y-83067577D01*
X92282677Y-83056585D01*
X92270744Y-83045528D01*
X92258858Y-83034407D01*
X92247019Y-83023220D01*
X92235227Y-83011968D01*
X92223483Y-83000650D01*
X92211786Y-82989268D01*
X92200136Y-82977820D01*
X92188533Y-82966306D01*
X92176977Y-82954726D01*
X92165469Y-82943081D01*
X92154007Y-82931370D01*
X92142593Y-82919593D01*
X92131226Y-82907750D01*
X92119906Y-82895841D01*
X92108633Y-82883865D01*
X92097407Y-82871823D01*
X92086229Y-82859714D01*
X92075097Y-82847539D01*
X92064013Y-82835297D01*
X92052975Y-82822988D01*
X92041985Y-82810612D01*
X92031042Y-82798169D01*
X92020147Y-82785658D01*
X92009298Y-82773081D01*
X91998497Y-82760436D01*
X91987743Y-82747723D01*
X91977036Y-82734943D01*
X91966377Y-82722095D01*
X91955765Y-82709180D01*
X91945201Y-82696196D01*
X91934684Y-82683144D01*
X91924214Y-82670024D01*
X91913793Y-82656835D01*
X91903419Y-82643579D01*
X91893092Y-82630253D01*
X91882814Y-82616859D01*
X91872583Y-82603397D01*
X91862400Y-82589865D01*
X91852265Y-82576264D01*
X91842178Y-82562595D01*
X91832140Y-82548856D01*
X91822149Y-82535048D01*
X91812207Y-82521171D01*
X91802314Y-82507224D01*
X91792469Y-82493207D01*
X91782672Y-82479121D01*
X91772924Y-82464965D01*
X91763225Y-82450740D01*
X91753575Y-82436444D01*
X91743974Y-82422079D01*
X91734422Y-82407643D01*
X91724919Y-82393137D01*
X91715465Y-82378561D01*
X91706062Y-82363914D01*
X91696707Y-82349197D01*
X91687403Y-82334410D01*
X91678148Y-82319552D01*
X91668943Y-82304624D01*
X91659789Y-82289624D01*
X91650684Y-82274554D01*
X91641631Y-82259414D01*
X91632627Y-82244202D01*
X91623675Y-82228919D01*
X91614773Y-82213566D01*
X91605923Y-82198142D01*
X91597123Y-82182646D01*
X91588375Y-82167080D01*
X91579679Y-82151442D01*
X91571035Y-82135734D01*
X91562442Y-82119954D01*
X91553901Y-82104103D01*
X91545413Y-82088182D01*
X91536977Y-82072189D01*
X91528594Y-82056125D01*
X91520264Y-82039990D01*
X91511987Y-82023784D01*
X91503763Y-82007507D01*
X91495592Y-81991159D01*
X91487476Y-81974740D01*
X91479413Y-81958250D01*
X91471404Y-81941690D01*
X91463450Y-81925059D01*
X91455550Y-81908357D01*
X91447706Y-81891584D01*
X91439916Y-81874742D01*
X91432181Y-81857828D01*
X91424502Y-81840845D01*
X91416879Y-81823791D01*
X91409312Y-81806668D01*
X91401801Y-81789475D01*
X91394347Y-81772212D01*
X91386950Y-81754880D01*
X91379609Y-81737478D01*
X91372326Y-81720008D01*
X91365101Y-81702468D01*
X91357934Y-81684860D01*
X91350824Y-81667184D01*
X91343774Y-81649439D01*
X91336782Y-81631627D01*
X91329849Y-81613747D01*
X91322975Y-81595801D01*
X91316161Y-81577787D01*
X91309408Y-81559706D01*
X91302714Y-81541560D01*
X91296081Y-81523348D01*
X91289509Y-81505070D01*
X91282999Y-81486728D01*
X91276550Y-81468321D01*
X91270162Y-81449850D01*
X91263838Y-81431316D01*
X91257575Y-81412718D01*
X91251376Y-81394059D01*
X91245240Y-81375337D01*
X91239168Y-81356555D01*
X91233160Y-81337712D01*
X91227217Y-81318809D01*
X91221338Y-81299847D01*
X91215524Y-81280827D01*
X91209776Y-81261749D01*
X91204094Y-81242614D01*
X91198479Y-81223423D01*
X91192930Y-81204178D01*
X91187448Y-81184878D01*
X91182034Y-81165526D01*
X91176688Y-81146121D01*
X91171410Y-81126666D01*
X91166201Y-81107160D01*
X91161062Y-81087607D01*
X91155992Y-81068006D01*
X91150992Y-81048358D01*
X91146063Y-81028667D01*
X91141205Y-81008932D01*
X91136419Y-80989156D01*
X91131704Y-80969339D01*
X91127062Y-80949485D01*
X91122493Y-80929594D01*
X91117998Y-80909668D01*
X91113576Y-80889709D01*
X91109229Y-80869720D01*
X91104957Y-80849702D01*
X91100760Y-80829658D01*
X91096639Y-80809590D01*
X91092595Y-80789501D01*
X91088628Y-80769393D01*
X91084739Y-80749269D01*
X91080927Y-80729132D01*
X91077195Y-80708986D01*
X91073541Y-80688833D01*
X91069968Y-80668676D01*
X91066475Y-80648521D01*
X91063063Y-80628370D01*
X91059732Y-80608227D01*
X91056484Y-80588098D01*
X91053319Y-80567986D01*
X91050237Y-80547897D01*
X91047239Y-80527837D01*
X91044326Y-80507809D01*
X91041499Y-80487822D01*
X91038758Y-80467881D01*
X91036103Y-80447993D01*
X91033536Y-80428166D01*
X91031057Y-80408407D01*
X91028667Y-80388726D01*
X91026366Y-80369131D01*
X91024156Y-80349634D01*
X91022037Y-80330244D01*
X91020010Y-80310975D01*
X91018075Y-80291840D01*
X91016234Y-80272852D01*
X91014487Y-80254029D01*
X91012835Y-80235389D01*
X91011279Y-80216950D01*
X91009820Y-80198736D01*
X91008458Y-80180773D01*
X91007195Y-80163089D01*
X91006031Y-80145719D01*
X91004967Y-80128700D01*
X91004004Y-80112080D01*
X91003144Y-80095914D01*
X91002386Y-80080271D01*
X91001733Y-80065234D01*
X91001183Y-80050916D01*
X91000740Y-80037466D01*
X91000401Y-80025101D01*
X91000168Y-80014165D01*
X91000038Y-80005295D01*
X91000000Y-80000000D01*
D11*
X95000000Y-29000000D02*
X117000000Y-29000000D01*
D10*
X91000000Y-33000000D02*
X91000010Y-32989056D01*
X91000040Y-32978131D01*
X91000090Y-32967227D01*
X91000160Y-32956342D01*
X91000249Y-32945477D01*
X91000359Y-32934632D01*
X91000488Y-32923807D01*
X91000637Y-32913002D01*
X91000806Y-32902216D01*
X91000994Y-32891450D01*
X91001202Y-32880704D01*
X91001430Y-32869977D01*
X91001677Y-32859270D01*
X91001943Y-32848583D01*
X91002230Y-32837915D01*
X91002535Y-32827266D01*
X91002860Y-32816637D01*
X91003205Y-32806027D01*
X91003569Y-32795437D01*
X91003952Y-32784866D01*
X91004355Y-32774314D01*
X91004776Y-32763782D01*
X91005217Y-32753268D01*
X91005678Y-32742775D01*
X91006157Y-32732300D01*
X91006655Y-32721844D01*
X91007173Y-32711407D01*
X91007709Y-32700990D01*
X91008265Y-32690591D01*
X91008840Y-32680211D01*
X91009433Y-32669850D01*
X91010046Y-32659509D01*
X91010677Y-32649186D01*
X91011328Y-32638882D01*
X91011997Y-32628596D01*
X91012685Y-32618330D01*
X91013391Y-32608082D01*
X91014117Y-32597853D01*
X91014861Y-32587642D01*
X91015624Y-32577451D01*
X91016405Y-32567277D01*
X91017205Y-32557123D01*
X91018024Y-32546986D01*
X91018861Y-32536869D01*
X91019717Y-32526769D01*
X91020591Y-32516688D01*
X91021484Y-32506626D01*
X91022395Y-32496582D01*
X91023325Y-32486556D01*
X91024273Y-32476548D01*
X91025239Y-32466559D01*
X91026223Y-32456588D01*
X91027226Y-32446635D01*
X91028247Y-32436700D01*
X91029287Y-32426783D01*
X91030344Y-32416885D01*
X91031420Y-32407004D01*
X91032514Y-32397142D01*
X91033626Y-32387296D01*
X91034756Y-32377470D01*
X91035904Y-32367661D01*
X91037070Y-32357871D01*
X91038254Y-32348097D01*
X91039456Y-32338342D01*
X91040676Y-32328604D01*
X91041914Y-32318885D01*
X91043170Y-32309182D01*
X91044443Y-32299498D01*
X91045735Y-32289830D01*
X91047044Y-32280182D01*
X91048371Y-32270549D01*
X91049716Y-32260936D01*
X91051079Y-32251338D01*
X91052459Y-32241760D01*
X91053857Y-32232197D01*
X91055272Y-32222654D01*
X91056706Y-32213126D01*
X91058156Y-32203617D01*
X91059625Y-32194123D01*
X91061111Y-32184649D01*
X91062614Y-32175190D01*
X91064135Y-32165750D01*
X91065674Y-32156326D01*
X91067229Y-32146920D01*
X91068803Y-32137530D01*
X91070393Y-32128158D01*
X91072002Y-32118802D01*
X91073627Y-32109465D01*
X91075270Y-32100142D01*
X91076930Y-32090839D01*
X91078607Y-32081550D01*
X91080301Y-32072281D01*
X91082013Y-32063026D01*
X91083742Y-32053790D01*
X91085489Y-32044568D01*
X91087252Y-32035366D01*
X91089033Y-32026178D01*
X91090830Y-32017009D01*
X91092645Y-32007854D01*
X91094476Y-31998718D01*
X91096325Y-31989597D01*
X91098191Y-31980494D01*
X91100074Y-31971406D01*
X91101974Y-31962336D01*
X91103891Y-31953281D01*
X91105825Y-31944244D01*
X91107775Y-31935221D01*
X91109743Y-31926217D01*
X91111728Y-31917227D01*
X91113729Y-31908255D01*
X91115747Y-31899298D01*
X91117782Y-31890359D01*
X91119834Y-31881434D01*
X91121902Y-31872527D01*
X91123988Y-31863634D01*
X91126090Y-31854760D01*
X91128209Y-31845899D01*
X91130344Y-31837057D01*
X91132497Y-31828229D01*
X91134665Y-31819418D01*
X91136851Y-31810622D01*
X91139053Y-31801844D01*
X91141272Y-31793079D01*
X91143507Y-31784332D01*
X91145759Y-31775599D01*
X91148027Y-31766884D01*
X91150313Y-31758182D01*
X91152614Y-31749499D01*
X91154932Y-31740829D01*
X91157266Y-31732177D01*
X91159618Y-31723538D01*
X91161985Y-31714917D01*
X91164369Y-31706310D01*
X91166769Y-31697720D01*
X91169186Y-31689143D01*
X91171619Y-31680585D01*
X91174069Y-31672039D01*
X91176534Y-31663512D01*
X91179016Y-31654997D01*
X91181515Y-31646500D01*
X91184030Y-31638016D01*
X91186560Y-31629550D01*
X91189108Y-31621097D01*
X91191671Y-31612661D01*
X91194252Y-31604238D01*
X91196847Y-31595833D01*
X91199460Y-31587441D01*
X91202088Y-31579066D01*
X91204733Y-31570704D01*
X91207393Y-31562359D01*
X91212764Y-31545713D01*
X91218198Y-31529127D01*
X91223697Y-31512600D01*
X91229261Y-31496133D01*
X91234889Y-31479726D01*
X91240580Y-31463377D01*
X91246336Y-31447088D01*
X91252156Y-31430857D01*
X91258040Y-31414685D01*
X91263987Y-31398571D01*
X91269998Y-31382515D01*
X91276073Y-31366517D01*
X91282211Y-31350577D01*
X91288412Y-31334695D01*
X91294677Y-31318869D01*
X91301006Y-31303101D01*
X91307397Y-31287389D01*
X91313852Y-31271734D01*
X91320370Y-31256136D01*
X91326951Y-31240594D01*
X91333594Y-31225108D01*
X91340301Y-31209677D01*
X91347071Y-31194303D01*
X91353903Y-31178984D01*
X91360798Y-31163720D01*
X91367756Y-31148511D01*
X91374777Y-31133357D01*
X91381860Y-31118258D01*
X91389006Y-31103214D01*
X91396214Y-31088224D01*
X91403485Y-31073288D01*
X91410819Y-31058406D01*
X91418215Y-31043578D01*
X91425674Y-31028804D01*
X91433194Y-31014083D01*
X91440778Y-30999415D01*
X91448424Y-30984801D01*
X91456132Y-30970239D01*
X91463902Y-30955731D01*
X91471735Y-30941275D01*
X91479631Y-30926871D01*
X91487588Y-30912520D01*
X91495608Y-30898221D01*
X91503691Y-30883975D01*
X91511836Y-30869780D01*
X91520043Y-30855637D01*
X91528312Y-30841545D01*
X91536644Y-30827505D01*
X91545039Y-30813516D01*
X91553496Y-30799578D01*
X91562015Y-30785692D01*
X91570597Y-30771856D01*
X91579241Y-30758071D01*
X91587947Y-30744336D01*
X91596717Y-30730652D01*
X91605549Y-30717019D01*
X91614443Y-30703435D01*
X91623400Y-30689902D01*
X91632420Y-30676419D01*
X91641502Y-30662986D01*
X91650648Y-30649602D01*
X91659856Y-30636268D01*
X91669126Y-30622983D01*
X91678460Y-30609748D01*
X91687857Y-30596563D01*
X91697317Y-30583426D01*
X91706839Y-30570338D01*
X91716425Y-30557300D01*
X91726074Y-30544310D01*
X91735786Y-30531370D01*
X91745562Y-30518478D01*
X91755401Y-30505634D01*
X91765303Y-30492839D01*
X91775269Y-30480093D01*
X91785298Y-30467395D01*
X91795391Y-30454745D01*
X91805547Y-30442143D01*
X91815768Y-30429590D01*
X91826052Y-30417084D01*
X91836400Y-30404627D01*
X91846812Y-30392217D01*
X91857288Y-30379855D01*
X91867829Y-30367541D01*
X91878433Y-30355275D01*
X91889102Y-30343057D01*
X91899835Y-30330886D01*
X91910633Y-30318762D01*
X91921496Y-30306687D01*
X91932423Y-30294658D01*
X91943415Y-30282677D01*
X91954472Y-30270744D01*
X91965593Y-30258858D01*
X91976780Y-30247019D01*
X91988032Y-30235227D01*
X91999350Y-30223483D01*
X92010732Y-30211786D01*
X92022180Y-30200136D01*
X92033694Y-30188533D01*
X92045274Y-30176977D01*
X92056919Y-30165469D01*
X92068630Y-30154007D01*
X92080407Y-30142593D01*
X92092250Y-30131226D01*
X92104159Y-30119906D01*
X92116135Y-30108633D01*
X92128177Y-30097407D01*
X92140286Y-30086229D01*
X92152461Y-30075097D01*
X92164703Y-30064013D01*
X92177012Y-30052975D01*
X92189388Y-30041985D01*
X92201831Y-30031042D01*
X92214342Y-30020147D01*
X92226919Y-30009298D01*
X92239564Y-29998497D01*
X92252277Y-29987743D01*
X92265057Y-29977036D01*
X92277905Y-29966377D01*
X92290820Y-29955765D01*
X92303804Y-29945201D01*
X92316856Y-29934684D01*
X92329976Y-29924214D01*
X92343165Y-29913793D01*
X92356421Y-29903419D01*
X92369747Y-29893092D01*
X92383141Y-29882814D01*
X92396603Y-29872583D01*
X92410135Y-29862400D01*
X92423736Y-29852265D01*
X92437405Y-29842178D01*
X92451144Y-29832140D01*
X92464952Y-29822149D01*
X92478829Y-29812207D01*
X92492776Y-29802314D01*
X92506793Y-29792469D01*
X92520879Y-29782672D01*
X92535035Y-29772924D01*
X92549260Y-29763225D01*
X92563556Y-29753575D01*
X92577921Y-29743974D01*
X92592357Y-29734422D01*
X92606863Y-29724919D01*
X92621439Y-29715465D01*
X92636086Y-29706062D01*
X92650803Y-29696707D01*
X92665590Y-29687403D01*
X92680448Y-29678148D01*
X92695376Y-29668943D01*
X92710376Y-29659789D01*
X92725446Y-29650684D01*
X92740586Y-29641631D01*
X92755798Y-29632627D01*
X92771081Y-29623675D01*
X92786434Y-29614773D01*
X92801858Y-29605923D01*
X92817354Y-29597123D01*
X92832920Y-29588375D01*
X92848558Y-29579679D01*
X92864266Y-29571035D01*
X92880046Y-29562442D01*
X92895897Y-29553901D01*
X92911818Y-29545413D01*
X92927811Y-29536977D01*
X92943875Y-29528594D01*
X92960010Y-29520264D01*
X92976216Y-29511987D01*
X92992493Y-29503763D01*
X93008841Y-29495592D01*
X93025260Y-29487476D01*
X93041750Y-29479413D01*
X93058310Y-29471404D01*
X93074941Y-29463450D01*
X93091643Y-29455550D01*
X93108416Y-29447706D01*
X93125258Y-29439916D01*
X93142172Y-29432181D01*
X93159155Y-29424502D01*
X93176209Y-29416879D01*
X93193332Y-29409312D01*
X93210525Y-29401801D01*
X93227788Y-29394347D01*
X93245120Y-29386950D01*
X93262522Y-29379609D01*
X93279992Y-29372326D01*
X93297532Y-29365101D01*
X93315140Y-29357934D01*
X93332816Y-29350824D01*
X93350561Y-29343774D01*
X93368373Y-29336782D01*
X93386253Y-29329849D01*
X93404199Y-29322975D01*
X93422213Y-29316161D01*
X93440294Y-29309408D01*
X93458440Y-29302714D01*
X93476652Y-29296081D01*
X93494930Y-29289509D01*
X93513272Y-29282999D01*
X93531679Y-29276550D01*
X93550150Y-29270162D01*
X93568684Y-29263838D01*
X93587282Y-29257575D01*
X93605941Y-29251376D01*
X93624663Y-29245240D01*
X93643445Y-29239168D01*
X93662288Y-29233160D01*
X93681191Y-29227217D01*
X93700153Y-29221338D01*
X93719173Y-29215524D01*
X93738251Y-29209776D01*
X93757386Y-29204094D01*
X93776577Y-29198479D01*
X93795822Y-29192930D01*
X93815122Y-29187448D01*
X93834474Y-29182034D01*
X93853879Y-29176688D01*
X93873334Y-29171410D01*
X93892840Y-29166201D01*
X93912393Y-29161062D01*
X93931994Y-29155992D01*
X93951642Y-29150992D01*
X93971333Y-29146063D01*
X93991068Y-29141205D01*
X94010844Y-29136419D01*
X94030661Y-29131704D01*
X94050515Y-29127062D01*
X94070406Y-29122493D01*
X94090332Y-29117998D01*
X94110291Y-29113576D01*
X94130280Y-29109229D01*
X94150298Y-29104957D01*
X94170342Y-29100760D01*
X94190410Y-29096639D01*
X94210499Y-29092595D01*
X94230607Y-29088628D01*
X94250731Y-29084739D01*
X94270868Y-29080927D01*
X94291014Y-29077195D01*
X94311167Y-29073541D01*
X94331324Y-29069968D01*
X94351479Y-29066475D01*
X94371630Y-29063063D01*
X94391773Y-29059732D01*
X94411902Y-29056484D01*
X94432014Y-29053319D01*
X94452103Y-29050237D01*
X94472163Y-29047239D01*
X94492191Y-29044326D01*
X94512178Y-29041499D01*
X94532119Y-29038758D01*
X94552007Y-29036103D01*
X94571834Y-29033536D01*
X94591593Y-29031057D01*
X94611274Y-29028667D01*
X94630869Y-29026366D01*
X94650366Y-29024156D01*
X94669756Y-29022037D01*
X94689025Y-29020010D01*
X94708160Y-29018075D01*
X94727148Y-29016234D01*
X94745971Y-29014487D01*
X94764611Y-29012835D01*
X94783050Y-29011279D01*
X94801264Y-29009820D01*
X94819227Y-29008458D01*
X94836911Y-29007195D01*
X94854281Y-29006031D01*
X94871300Y-29004967D01*
X94887920Y-29004004D01*
X94904086Y-29003144D01*
X94919729Y-29002386D01*
X94934766Y-29001733D01*
X94949084Y-29001183D01*
X94962534Y-29000740D01*
X94974899Y-29000401D01*
X94985835Y-29000168D01*
X94994705Y-29000038D01*
X95000000Y-29000000D01*
D11*
X117000000Y-84000000D02*
X95000000Y-84000000D01*
D10*
X117000000Y-29000000D02*
X117010944Y-29000010D01*
X117021869Y-29000040D01*
X117032773Y-29000090D01*
X117043658Y-29000160D01*
X117054523Y-29000249D01*
X117065368Y-29000359D01*
X117076193Y-29000488D01*
X117086998Y-29000637D01*
X117097784Y-29000806D01*
X117108550Y-29000994D01*
X117119296Y-29001202D01*
X117130023Y-29001430D01*
X117140730Y-29001677D01*
X117151417Y-29001943D01*
X117162085Y-29002230D01*
X117172734Y-29002535D01*
X117183363Y-29002860D01*
X117193973Y-29003205D01*
X117204563Y-29003569D01*
X117215134Y-29003952D01*
X117225686Y-29004355D01*
X117236218Y-29004776D01*
X117246732Y-29005217D01*
X117257225Y-29005678D01*
X117267700Y-29006157D01*
X117278156Y-29006655D01*
X117288593Y-29007173D01*
X117299010Y-29007709D01*
X117309409Y-29008265D01*
X117319789Y-29008840D01*
X117330150Y-29009433D01*
X117340491Y-29010046D01*
X117350814Y-29010677D01*
X117361118Y-29011328D01*
X117371404Y-29011997D01*
X117381670Y-29012685D01*
X117391918Y-29013391D01*
X117402147Y-29014117D01*
X117412358Y-29014861D01*
X117422549Y-29015624D01*
X117432723Y-29016405D01*
X117442877Y-29017205D01*
X117453014Y-29018024D01*
X117463131Y-29018861D01*
X117473231Y-29019717D01*
X117483312Y-29020591D01*
X117493374Y-29021484D01*
X117503418Y-29022395D01*
X117513444Y-29023325D01*
X117523452Y-29024273D01*
X117533441Y-29025239D01*
X117543412Y-29026223D01*
X117553365Y-29027226D01*
X117563300Y-29028247D01*
X117573217Y-29029287D01*
X117583115Y-29030344D01*
X117592996Y-29031420D01*
X117602858Y-29032514D01*
X117612704Y-29033626D01*
X117622530Y-29034756D01*
X117632339Y-29035904D01*
X117642129Y-29037070D01*
X117651903Y-29038254D01*
X117661658Y-29039456D01*
X117671396Y-29040676D01*
X117681115Y-29041914D01*
X117690818Y-29043170D01*
X117700502Y-29044443D01*
X117710170Y-29045735D01*
X117719818Y-29047044D01*
X117729451Y-29048371D01*
X117739064Y-29049716D01*
X117748662Y-29051079D01*
X117758240Y-29052459D01*
X117767803Y-29053857D01*
X117777346Y-29055272D01*
X117786874Y-29056706D01*
X117796383Y-29058156D01*
X117805877Y-29059625D01*
X117815351Y-29061111D01*
X117824810Y-29062614D01*
X117834250Y-29064135D01*
X117843674Y-29065674D01*
X117853080Y-29067229D01*
X117862470Y-29068803D01*
X117871842Y-29070393D01*
X117881198Y-29072002D01*
X117890535Y-29073627D01*
X117899858Y-29075270D01*
X117909161Y-29076930D01*
X117918450Y-29078607D01*
X117927719Y-29080301D01*
X117936974Y-29082013D01*
X117946210Y-29083742D01*
X117955432Y-29085489D01*
X117964634Y-29087252D01*
X117973822Y-29089033D01*
X117982991Y-29090830D01*
X117992146Y-29092645D01*
X118001282Y-29094476D01*
X118010403Y-29096325D01*
X118019506Y-29098191D01*
X118028594Y-29100074D01*
X118037664Y-29101974D01*
X118046719Y-29103891D01*
X118055756Y-29105825D01*
X118064779Y-29107775D01*
X118073783Y-29109743D01*
X118082773Y-29111728D01*
X118091745Y-29113729D01*
X118100702Y-29115747D01*
X118109641Y-29117782D01*
X118118566Y-29119834D01*
X118127473Y-29121902D01*
X118136366Y-29123988D01*
X118145240Y-29126090D01*
X118154101Y-29128209D01*
X118162943Y-29130344D01*
X118171771Y-29132497D01*
X118180582Y-29134665D01*
X118189378Y-29136851D01*
X118198156Y-29139053D01*
X118206921Y-29141272D01*
X118215668Y-29143507D01*
X118224401Y-29145759D01*
X118233116Y-29148027D01*
X118241818Y-29150313D01*
X118250501Y-29152614D01*
X118259171Y-29154932D01*
X118267823Y-29157266D01*
X118276462Y-29159618D01*
X118285083Y-29161985D01*
X118293690Y-29164369D01*
X118302280Y-29166769D01*
X118310857Y-29169186D01*
X118319415Y-29171619D01*
X118327961Y-29174069D01*
X118336488Y-29176534D01*
X118345003Y-29179016D01*
X118353500Y-29181515D01*
X118361984Y-29184030D01*
X118370450Y-29186560D01*
X118378903Y-29189108D01*
X118387339Y-29191671D01*
X118395762Y-29194252D01*
X118404167Y-29196847D01*
X118412559Y-29199460D01*
X118420934Y-29202088D01*
X118429296Y-29204733D01*
X118437641Y-29207393D01*
X118454287Y-29212764D01*
X118470873Y-29218198D01*
X118487400Y-29223697D01*
X118503867Y-29229261D01*
X118520274Y-29234889D01*
X118536623Y-29240580D01*
X118552912Y-29246336D01*
X118569143Y-29252156D01*
X118585315Y-29258040D01*
X118601429Y-29263987D01*
X118617485Y-29269998D01*
X118633483Y-29276073D01*
X118649423Y-29282211D01*
X118665305Y-29288412D01*
X118681131Y-29294677D01*
X118696899Y-29301006D01*
X118712611Y-29307397D01*
X118728266Y-29313852D01*
X118743864Y-29320370D01*
X118759406Y-29326951D01*
X118774892Y-29333594D01*
X118790323Y-29340301D01*
X118805697Y-29347071D01*
X118821016Y-29353903D01*
X118836280Y-29360798D01*
X118851489Y-29367756D01*
X118866643Y-29374777D01*
X118881742Y-29381860D01*
X118896786Y-29389006D01*
X118911776Y-29396214D01*
X118926712Y-29403485D01*
X118941594Y-29410819D01*
X118956422Y-29418215D01*
X118971196Y-29425674D01*
X118985917Y-29433194D01*
X119000585Y-29440778D01*
X119015199Y-29448424D01*
X119029761Y-29456132D01*
X119044269Y-29463902D01*
X119058725Y-29471735D01*
X119073129Y-29479631D01*
X119087480Y-29487588D01*
X119101779Y-29495608D01*
X119116025Y-29503691D01*
X119130220Y-29511836D01*
X119144363Y-29520043D01*
X119158455Y-29528312D01*
X119172495Y-29536644D01*
X119186484Y-29545039D01*
X119200422Y-29553496D01*
X119214308Y-29562015D01*
X119228144Y-29570597D01*
X119241929Y-29579241D01*
X119255664Y-29587947D01*
X119269348Y-29596717D01*
X119282981Y-29605549D01*
X119296565Y-29614443D01*
X119310098Y-29623400D01*
X119323581Y-29632420D01*
X119337014Y-29641502D01*
X119350398Y-29650648D01*
X119363732Y-29659856D01*
X119377017Y-29669126D01*
X119390252Y-29678460D01*
X119403437Y-29687857D01*
X119416574Y-29697317D01*
X119429662Y-29706839D01*
X119442700Y-29716425D01*
X119455690Y-29726074D01*
X119468630Y-29735786D01*
X119481522Y-29745562D01*
X119494366Y-29755401D01*
X119507161Y-29765303D01*
X119519907Y-29775269D01*
X119532605Y-29785298D01*
X119545255Y-29795391D01*
X119557857Y-29805547D01*
X119570410Y-29815768D01*
X119582916Y-29826052D01*
X119595373Y-29836400D01*
X119607783Y-29846812D01*
X119620145Y-29857288D01*
X119632459Y-29867829D01*
X119644725Y-29878433D01*
X119656943Y-29889102D01*
X119669114Y-29899835D01*
X119681238Y-29910633D01*
X119693313Y-29921496D01*
X119705342Y-29932423D01*
X119717323Y-29943415D01*
X119729256Y-29954472D01*
X119741142Y-29965593D01*
X119752981Y-29976780D01*
X119764773Y-29988032D01*
X119776517Y-29999350D01*
X119788214Y-30010732D01*
X119799864Y-30022180D01*
X119811467Y-30033694D01*
X119823023Y-30045274D01*
X119834531Y-30056919D01*
X119845993Y-30068630D01*
X119857407Y-30080407D01*
X119868774Y-30092250D01*
X119880094Y-30104159D01*
X119891367Y-30116135D01*
X119902593Y-30128177D01*
X119913771Y-30140286D01*
X119924903Y-30152461D01*
X119935987Y-30164703D01*
X119947025Y-30177012D01*
X119958015Y-30189388D01*
X119968958Y-30201831D01*
X119979853Y-30214342D01*
X119990702Y-30226919D01*
X120001503Y-30239564D01*
X120012257Y-30252277D01*
X120022964Y-30265057D01*
X120033623Y-30277905D01*
X120044235Y-30290820D01*
X120054799Y-30303804D01*
X120065316Y-30316856D01*
X120075786Y-30329976D01*
X120086207Y-30343165D01*
X120096581Y-30356421D01*
X120106908Y-30369747D01*
X120117186Y-30383141D01*
X120127417Y-30396603D01*
X120137600Y-30410135D01*
X120147735Y-30423736D01*
X120157822Y-30437405D01*
X120167860Y-30451144D01*
X120177851Y-30464952D01*
X120187793Y-30478829D01*
X120197686Y-30492776D01*
X120207531Y-30506793D01*
X120217328Y-30520879D01*
X120227076Y-30535035D01*
X120236775Y-30549260D01*
X120246425Y-30563556D01*
X120256026Y-30577921D01*
X120265578Y-30592357D01*
X120275081Y-30606863D01*
X120284535Y-30621439D01*
X120293938Y-30636086D01*
X120303293Y-30650803D01*
X120312597Y-30665590D01*
X120321852Y-30680448D01*
X120331057Y-30695376D01*
X120340211Y-30710376D01*
X120349316Y-30725446D01*
X120358369Y-30740586D01*
X120367373Y-30755798D01*
X120376325Y-30771081D01*
X120385227Y-30786434D01*
X120394077Y-30801858D01*
X120402877Y-30817354D01*
X120411625Y-30832920D01*
X120420321Y-30848558D01*
X120428965Y-30864266D01*
X120437558Y-30880046D01*
X120446099Y-30895897D01*
X120454587Y-30911818D01*
X120463023Y-30927811D01*
X120471406Y-30943875D01*
X120479736Y-30960010D01*
X120488013Y-30976216D01*
X120496237Y-30992493D01*
X120504408Y-31008841D01*
X120512524Y-31025260D01*
X120520587Y-31041750D01*
X120528596Y-31058310D01*
X120536550Y-31074941D01*
X120544450Y-31091643D01*
X120552294Y-31108416D01*
X120560084Y-31125258D01*
X120567819Y-31142172D01*
X120575498Y-31159155D01*
X120583121Y-31176209D01*
X120590688Y-31193332D01*
X120598199Y-31210525D01*
X120605653Y-31227788D01*
X120613050Y-31245120D01*
X120620391Y-31262522D01*
X120627674Y-31279992D01*
X120634899Y-31297532D01*
X120642066Y-31315140D01*
X120649176Y-31332816D01*
X120656226Y-31350561D01*
X120663218Y-31368373D01*
X120670151Y-31386253D01*
X120677025Y-31404199D01*
X120683839Y-31422213D01*
X120690592Y-31440294D01*
X120697286Y-31458440D01*
X120703919Y-31476652D01*
X120710491Y-31494930D01*
X120717001Y-31513272D01*
X120723450Y-31531679D01*
X120729838Y-31550150D01*
X120736162Y-31568684D01*
X120742425Y-31587282D01*
X120748624Y-31605941D01*
X120754760Y-31624663D01*
X120760832Y-31643445D01*
X120766840Y-31662288D01*
X120772783Y-31681191D01*
X120778662Y-31700153D01*
X120784476Y-31719173D01*
X120790224Y-31738251D01*
X120795906Y-31757386D01*
X120801521Y-31776577D01*
X120807070Y-31795822D01*
X120812552Y-31815122D01*
X120817966Y-31834474D01*
X120823312Y-31853879D01*
X120828590Y-31873334D01*
X120833799Y-31892840D01*
X120838938Y-31912393D01*
X120844008Y-31931994D01*
X120849008Y-31951642D01*
X120853937Y-31971333D01*
X120858795Y-31991068D01*
X120863581Y-32010844D01*
X120868296Y-32030661D01*
X120872938Y-32050515D01*
X120877507Y-32070406D01*
X120882002Y-32090332D01*
X120886424Y-32110291D01*
X120890771Y-32130280D01*
X120895043Y-32150298D01*
X120899240Y-32170342D01*
X120903361Y-32190410D01*
X120907405Y-32210499D01*
X120911372Y-32230607D01*
X120915261Y-32250731D01*
X120919073Y-32270868D01*
X120922805Y-32291014D01*
X120926459Y-32311167D01*
X120930032Y-32331324D01*
X120933525Y-32351479D01*
X120936937Y-32371630D01*
X120940268Y-32391773D01*
X120943516Y-32411902D01*
X120946681Y-32432014D01*
X120949763Y-32452103D01*
X120952761Y-32472163D01*
X120955674Y-32492191D01*
X120958501Y-32512178D01*
X120961242Y-32532119D01*
X120963897Y-32552007D01*
X120966464Y-32571834D01*
X120968943Y-32591593D01*
X120971333Y-32611274D01*
X120973634Y-32630869D01*
X120975844Y-32650366D01*
X120977963Y-32669756D01*
X120979990Y-32689025D01*
X120981925Y-32708160D01*
X120983766Y-32727148D01*
X120985513Y-32745971D01*
X120987165Y-32764611D01*
X120988721Y-32783050D01*
X120990180Y-32801264D01*
X120991542Y-32819227D01*
X120992805Y-32836911D01*
X120993969Y-32854281D01*
X120995033Y-32871300D01*
X120995996Y-32887920D01*
X120996856Y-32904086D01*
X120997614Y-32919729D01*
X120998267Y-32934766D01*
X120998817Y-32949084D01*
X120999260Y-32962534D01*
X120999599Y-32974899D01*
X120999832Y-32985835D01*
X120999962Y-32994705D01*
X121000000Y-33000000D01*
M02*
