%TF.GenerationSoftware,KiCad,Pcbnew,9.0.0*%
%TF.CreationDate,2025-02-26T16:47:43+09:00*%
%TF.ProjectId,TCIS,54434953-2e6b-4696-9361-645f70636258,rev?*%
%TF.SameCoordinates,Original*%
%TF.FileFunction,Soldermask,Top*%
%TF.FilePolarity,Negative*%
%FSLAX46Y46*%
G04 Gerber Fmt 4.6, Leading zero omitted, Abs format (unit mm)*
G04 Created by KiCad (PCBNEW 9.0.0) date 2025-02-26 16:47:43*
%MOMM*%
%LPD*%
G01*
G04 APERTURE LIST*
G04 Aperture macros list*
%AMRoundRect*
0 Rectangle with rounded corners*
0 $1 Rounding radius*
0 $2 $3 $4 $5 $6 $7 $8 $9 X,Y pos of 4 corners*
0 Add a 4 corners polygon primitive as box body*
4,1,4,$2,$3,$4,$5,$6,$7,$8,$9,$2,$3,0*
0 Add four circle primitives for the rounded corners*
1,1,$1+$1,$2,$3*
1,1,$1+$1,$4,$5*
1,1,$1+$1,$6,$7*
1,1,$1+$1,$8,$9*
0 Add four rect primitives between the rounded corners*
20,1,$1+$1,$2,$3,$4,$5,0*
20,1,$1+$1,$4,$5,$6,$7,0*
20,1,$1+$1,$6,$7,$8,$9,0*
20,1,$1+$1,$8,$9,$2,$3,0*%
G04 Aperture macros list end*
%ADD10C,0.000000*%
%ADD11R,1.700000X1.700000*%
%ADD12O,1.700000X1.700000*%
%ADD13RoundRect,0.250000X-0.550000X-0.550000X0.550000X-0.550000X0.550000X0.550000X-0.550000X0.550000X0*%
%ADD14C,1.600000*%
%ADD15O,1.600000X1.600000*%
G04 APERTURE END LIST*
D10*
%TO.C,G\u002A\u002A\u002A*%
G36*
X108575000Y-78600000D02*
G01*
X108575000Y-80010000D01*
X108365000Y-80010000D01*
X108155000Y-80010000D01*
X108155000Y-78600000D01*
X108155000Y-77190000D01*
X108365000Y-77190000D01*
X108575000Y-77190000D01*
X108575000Y-78600000D01*
G37*
G36*
X100839798Y-78099332D02*
G01*
X100845000Y-79008664D01*
X101222858Y-78569332D01*
X101600716Y-78130000D01*
X101858264Y-78130000D01*
X102115811Y-78130000D01*
X101732871Y-78565000D01*
X101634588Y-78677097D01*
X101545002Y-78780142D01*
X101467528Y-78870138D01*
X101405577Y-78943089D01*
X101362565Y-78995001D01*
X101341904Y-79021877D01*
X101340683Y-79024069D01*
X101350764Y-79044904D01*
X101383783Y-79092049D01*
X101436599Y-79161486D01*
X101506069Y-79249197D01*
X101589052Y-79351165D01*
X101682404Y-79463371D01*
X101708276Y-79494069D01*
X101805622Y-79609348D01*
X101895520Y-79715972D01*
X101974451Y-79809753D01*
X102038893Y-79886503D01*
X102085328Y-79942034D01*
X102110235Y-79972157D01*
X102112508Y-79975000D01*
X102121132Y-79989010D01*
X102117571Y-79998688D01*
X102096276Y-80004828D01*
X102051699Y-80008229D01*
X101978294Y-80009687D01*
X101870511Y-80009999D01*
X101868829Y-80010000D01*
X101597760Y-80010000D01*
X101221380Y-79555335D01*
X100845000Y-79100670D01*
X100839624Y-79555335D01*
X100834249Y-80010000D01*
X100614624Y-80010000D01*
X100395000Y-80010000D01*
X100395000Y-78600000D01*
X100395000Y-77190000D01*
X100614798Y-77190000D01*
X100834596Y-77190000D01*
X100839798Y-78099332D01*
G37*
G36*
X109960715Y-78098383D02*
G01*
X110120733Y-78134070D01*
X110266326Y-78200368D01*
X110360912Y-78269094D01*
X110435000Y-78334143D01*
X110435000Y-78232071D01*
X110435000Y-78130000D01*
X110655195Y-78130000D01*
X110875391Y-78130000D01*
X110870195Y-79075000D01*
X110865000Y-80020000D01*
X110650000Y-80025676D01*
X110435000Y-80031353D01*
X110435000Y-79928996D01*
X110435000Y-79826638D01*
X110353568Y-79891134D01*
X110234660Y-79969631D01*
X110107960Y-80019721D01*
X109963313Y-80044613D01*
X109855000Y-80048803D01*
X109725136Y-80044047D01*
X109623762Y-80029262D01*
X109561576Y-80011324D01*
X109416258Y-79940576D01*
X109277563Y-79838615D01*
X109155807Y-79714060D01*
X109081198Y-79610000D01*
X109013649Y-79466387D01*
X108969096Y-79300200D01*
X108948654Y-79122350D01*
X108949991Y-79072452D01*
X109387868Y-79072452D01*
X109399658Y-79207312D01*
X109433392Y-79321166D01*
X109511148Y-79450989D01*
X109616226Y-79552030D01*
X109746648Y-79622487D01*
X109774870Y-79632510D01*
X109847682Y-79644267D01*
X109941702Y-79643315D01*
X110040785Y-79631249D01*
X110128785Y-79609665D01*
X110167851Y-79593686D01*
X110261963Y-79527528D01*
X110346370Y-79435355D01*
X110409168Y-79331094D01*
X110423914Y-79294105D01*
X110446918Y-79187474D01*
X110453689Y-79062624D01*
X110444319Y-78937855D01*
X110421656Y-78839266D01*
X110363124Y-78726121D01*
X110274289Y-78628668D01*
X110163651Y-78552884D01*
X110039709Y-78504747D01*
X109925000Y-78490000D01*
X109793831Y-78508971D01*
X109668553Y-78561986D01*
X109558006Y-78643198D01*
X109471025Y-78746760D01*
X109435155Y-78814071D01*
X109399719Y-78936149D01*
X109387868Y-79072452D01*
X108949991Y-79072452D01*
X108953438Y-78943746D01*
X108984562Y-78775299D01*
X108993016Y-78747001D01*
X109069675Y-78568224D01*
X109177374Y-78411296D01*
X109312603Y-78280400D01*
X109467082Y-78182098D01*
X109626591Y-78121687D01*
X109793568Y-78094019D01*
X109960715Y-78098383D01*
G37*
G36*
X99027011Y-78099982D02*
G01*
X99188907Y-78139961D01*
X99339516Y-78214066D01*
X99390000Y-78249347D01*
X99495000Y-78329385D01*
X99495000Y-78229692D01*
X99495000Y-78130000D01*
X99705000Y-78130000D01*
X99915000Y-78130000D01*
X99915000Y-79080000D01*
X99915000Y-80030000D01*
X99705000Y-80030000D01*
X99495000Y-80030000D01*
X99495000Y-79930000D01*
X99492775Y-79872940D01*
X99487088Y-79836735D01*
X99482640Y-79830000D01*
X99461603Y-79842091D01*
X99422192Y-79872793D01*
X99398656Y-79892886D01*
X99315614Y-79956240D01*
X99228970Y-79999867D01*
X99128454Y-80027125D01*
X99003795Y-80041372D01*
X98935000Y-80044498D01*
X98825072Y-80045906D01*
X98742862Y-80041613D01*
X98676342Y-80030430D01*
X98619283Y-80013252D01*
X98454667Y-79934335D01*
X98311391Y-79824693D01*
X98191994Y-79688912D01*
X98099016Y-79531573D01*
X98034997Y-79357260D01*
X98002479Y-79170557D01*
X98002658Y-79147680D01*
X98442450Y-79147680D01*
X98475334Y-79287729D01*
X98537698Y-79412939D01*
X98626017Y-79517396D01*
X98736764Y-79595184D01*
X98817875Y-79628268D01*
X98891620Y-79640767D01*
X98984369Y-79642857D01*
X99080414Y-79635525D01*
X99164047Y-79619761D01*
X99207761Y-79603742D01*
X99323404Y-79522796D01*
X99413082Y-79416897D01*
X99475499Y-79292579D01*
X99509357Y-79156377D01*
X99513359Y-79014826D01*
X99486208Y-78874462D01*
X99426607Y-78741818D01*
X99389642Y-78687420D01*
X99297212Y-78594055D01*
X99185943Y-78533625D01*
X99052364Y-78504566D01*
X98976045Y-78501313D01*
X98847876Y-78511686D01*
X98744025Y-78544637D01*
X98652877Y-78605175D01*
X98589090Y-78668106D01*
X98509956Y-78776202D01*
X98461750Y-78895554D01*
X98442572Y-78998708D01*
X98442450Y-79147680D01*
X98002658Y-79147680D01*
X98004000Y-78976048D01*
X98011511Y-78916614D01*
X98051163Y-78753552D01*
X98116439Y-78593835D01*
X98200978Y-78451471D01*
X98251915Y-78387284D01*
X98382950Y-78267215D01*
X98531797Y-78177745D01*
X98692636Y-78119579D01*
X98859647Y-78093423D01*
X99027011Y-78099982D01*
G37*
G36*
X111775000Y-77762071D02*
G01*
X111775000Y-78334143D01*
X111849087Y-78269094D01*
X111980665Y-78179226D01*
X112131018Y-78120407D01*
X112293370Y-78092912D01*
X112460940Y-78097017D01*
X112626951Y-78132997D01*
X112784625Y-78201129D01*
X112831253Y-78229146D01*
X112970067Y-78339138D01*
X113084428Y-78475643D01*
X113150624Y-78585913D01*
X113201231Y-78697864D01*
X113233861Y-78812653D01*
X113250454Y-78941044D01*
X113252949Y-79093801D01*
X113251291Y-79144723D01*
X113246080Y-79246251D01*
X113238383Y-79320781D01*
X113225342Y-79381315D01*
X113204104Y-79440854D01*
X113171813Y-79512397D01*
X113169464Y-79517350D01*
X113069227Y-79687469D01*
X112944431Y-79826421D01*
X112793702Y-79935633D01*
X112738314Y-79965253D01*
X112665235Y-79999862D01*
X112606225Y-80022031D01*
X112547411Y-80034910D01*
X112474918Y-80041648D01*
X112386821Y-80045056D01*
X112275106Y-80045939D01*
X112190943Y-80040295D01*
X112122237Y-80026914D01*
X112083463Y-80014689D01*
X112009169Y-79981524D01*
X111926851Y-79935014D01*
X111878463Y-79902542D01*
X111775000Y-79826593D01*
X111775000Y-79918296D01*
X111775000Y-80010000D01*
X111555000Y-80010000D01*
X111335000Y-80010000D01*
X111335000Y-79109444D01*
X111758688Y-79109444D01*
X111759097Y-79117341D01*
X111783505Y-79275224D01*
X111838167Y-79406968D01*
X111923211Y-79512750D01*
X112038765Y-79592743D01*
X112134870Y-79632510D01*
X112206812Y-79644131D01*
X112300002Y-79643359D01*
X112398206Y-79631764D01*
X112485189Y-79610919D01*
X112525000Y-79594749D01*
X112639611Y-79513843D01*
X112732544Y-79402905D01*
X112777415Y-79320000D01*
X112812747Y-79199743D01*
X112823545Y-79063566D01*
X112809854Y-78927109D01*
X112775971Y-78815459D01*
X112703611Y-78694468D01*
X112607561Y-78600744D01*
X112494106Y-78535512D01*
X112369536Y-78499998D01*
X112240137Y-78495428D01*
X112112198Y-78523029D01*
X111992004Y-78584025D01*
X111915423Y-78647671D01*
X111836451Y-78742715D01*
X111785995Y-78845377D01*
X111761069Y-78964629D01*
X111758688Y-79109444D01*
X111335000Y-79109444D01*
X111335000Y-78600000D01*
X111335000Y-77190000D01*
X111555000Y-77190000D01*
X111775000Y-77190000D01*
X111775000Y-77762071D01*
G37*
G36*
X103244191Y-78094920D02*
G01*
X103433310Y-78124320D01*
X103602865Y-78188252D01*
X103751145Y-78285456D01*
X103876441Y-78414670D01*
X103977043Y-78574634D01*
X104017339Y-78665215D01*
X104039109Y-78728957D01*
X104052947Y-78794253D01*
X104060526Y-78873173D01*
X104063517Y-78977789D01*
X104063695Y-79000000D01*
X104065000Y-79220000D01*
X103360000Y-79225255D01*
X103164200Y-79227028D01*
X103005341Y-79229222D01*
X102880364Y-79231968D01*
X102786210Y-79235396D01*
X102719819Y-79239636D01*
X102678134Y-79244818D01*
X102658096Y-79251073D01*
X102655187Y-79255255D01*
X102664685Y-79284977D01*
X102689073Y-79336364D01*
X102714558Y-79383190D01*
X102798415Y-79495048D01*
X102904563Y-79575267D01*
X103035356Y-79625247D01*
X103152544Y-79643858D01*
X103315184Y-79639583D01*
X103464951Y-79599496D01*
X103597257Y-79524845D01*
X103601242Y-79521830D01*
X103690069Y-79454027D01*
X103827534Y-79593479D01*
X103965000Y-79732931D01*
X103882610Y-79806866D01*
X103736646Y-79913240D01*
X103569758Y-79992545D01*
X103484300Y-80019341D01*
X103374481Y-80038496D01*
X103243675Y-80047070D01*
X103108279Y-80045071D01*
X102984690Y-80032505D01*
X102920013Y-80019097D01*
X102739311Y-79950851D01*
X102580939Y-79851345D01*
X102447556Y-79724150D01*
X102341820Y-79572835D01*
X102266391Y-79400969D01*
X102223926Y-79212123D01*
X102215237Y-79072893D01*
X102229383Y-78878295D01*
X102239467Y-78838632D01*
X102652239Y-78838632D01*
X102660060Y-78860178D01*
X102688933Y-78874681D01*
X102742364Y-78883528D01*
X102823865Y-78888108D01*
X102936941Y-78889809D01*
X103085103Y-78890021D01*
X103155000Y-78890000D01*
X103316677Y-78889556D01*
X103442021Y-78888104D01*
X103534686Y-78885460D01*
X103598332Y-78881442D01*
X103636614Y-78875866D01*
X103653189Y-78868549D01*
X103654560Y-78865000D01*
X103642037Y-78814573D01*
X103610870Y-78747879D01*
X103568682Y-78678822D01*
X103523094Y-78621302D01*
X103518204Y-78616281D01*
X103426060Y-78546099D01*
X103316775Y-78505386D01*
X103184499Y-78492328D01*
X103125421Y-78494339D01*
X102982325Y-78518321D01*
X102864118Y-78571822D01*
X102766122Y-78657423D01*
X102720000Y-78717843D01*
X102685718Y-78768852D01*
X102661961Y-78808653D01*
X102652239Y-78838632D01*
X102239467Y-78838632D01*
X102272935Y-78706999D01*
X102348422Y-78552683D01*
X102458371Y-78409023D01*
X102496879Y-78368638D01*
X102646186Y-78245283D01*
X102812369Y-78158172D01*
X102995221Y-78107381D01*
X103194534Y-78092987D01*
X103244191Y-78094920D01*
G37*
G36*
X95753696Y-78094047D02*
G01*
X95921811Y-78120965D01*
X96070498Y-78180177D01*
X96195986Y-78270038D01*
X96226429Y-78300443D01*
X96308892Y-78388995D01*
X96399526Y-78302152D01*
X96470539Y-78243578D01*
X96555463Y-78186513D01*
X96607580Y-78157654D01*
X96665140Y-78131182D01*
X96715605Y-78114295D01*
X96770985Y-78104880D01*
X96843292Y-78100821D01*
X96935000Y-78100000D01*
X97035276Y-78101177D01*
X97107625Y-78106023D01*
X97164082Y-78116504D01*
X97216684Y-78134587D01*
X97257400Y-78152703D01*
X97403036Y-78240697D01*
X97518645Y-78353282D01*
X97598107Y-78480000D01*
X97654968Y-78600000D01*
X97654984Y-79305000D01*
X97655000Y-80010000D01*
X97445000Y-80010000D01*
X97235000Y-80010000D01*
X97234888Y-79425000D01*
X97234139Y-79258214D01*
X97232059Y-79107556D01*
X97228803Y-78977897D01*
X97224523Y-78874108D01*
X97219373Y-78801060D01*
X97214119Y-78765621D01*
X97166056Y-78661081D01*
X97090293Y-78579433D01*
X96993513Y-78523130D01*
X96882400Y-78494625D01*
X96763638Y-78496371D01*
X96643910Y-78530821D01*
X96613747Y-78545280D01*
X96535535Y-78594949D01*
X96482438Y-78653170D01*
X96461463Y-78688426D01*
X96448411Y-78714138D01*
X96438064Y-78739572D01*
X96430109Y-78769494D01*
X96424232Y-78808670D01*
X96420118Y-78861865D01*
X96417453Y-78933845D01*
X96415922Y-79029375D01*
X96415213Y-79153222D01*
X96415009Y-79310151D01*
X96415000Y-79393145D01*
X96415000Y-80010000D01*
X96195000Y-80010000D01*
X95975000Y-80010000D01*
X95974888Y-79415000D01*
X95974206Y-79260022D01*
X95972333Y-79115463D01*
X95969435Y-78986976D01*
X95965682Y-78880219D01*
X95961242Y-78800845D01*
X95956283Y-78754511D01*
X95955083Y-78749112D01*
X95916418Y-78671716D01*
X95849630Y-78597589D01*
X95765794Y-78537986D01*
X95730642Y-78521013D01*
X95617841Y-78492971D01*
X95501224Y-78496765D01*
X95389329Y-78529079D01*
X95290692Y-78586599D01*
X95213851Y-78666009D01*
X95176272Y-78736301D01*
X95169718Y-78774577D01*
X95164260Y-78850189D01*
X95159983Y-78960487D01*
X95156973Y-79102821D01*
X95155314Y-79274540D01*
X95155000Y-79401301D01*
X95155000Y-80010000D01*
X94935000Y-80010000D01*
X94715000Y-80010000D01*
X94715000Y-79070000D01*
X94715000Y-78130000D01*
X94935000Y-78130000D01*
X95155000Y-78130000D01*
X95155000Y-78223741D01*
X95155000Y-78317483D01*
X95210000Y-78267384D01*
X95340103Y-78174679D01*
X95489210Y-78116611D01*
X95658171Y-78092908D01*
X95753696Y-78094047D01*
G37*
%TD*%
D11*
%TO.C,LS1*%
X101000000Y-68445000D03*
D12*
X111000000Y-68445000D03*
%TD*%
D13*
%TO.C,U1*%
X102195000Y-47190000D03*
D14*
X102195000Y-49730000D03*
X102195000Y-52270000D03*
X102195000Y-54810000D03*
X109815000Y-54810000D03*
X109815000Y-52270000D03*
X109815000Y-49730000D03*
X109815000Y-47190000D03*
%TD*%
%TO.C,C3*%
X97000000Y-53250000D03*
D15*
X97000000Y-60750000D03*
%TD*%
D14*
%TO.C,R2*%
X117000000Y-50920000D03*
D15*
X117000000Y-61080000D03*
%TD*%
D14*
%TO.C,C1*%
X113000000Y-53250000D03*
D15*
X113000000Y-60750000D03*
%TD*%
D11*
%TO.C,R3*%
X105000000Y-40000000D03*
D12*
X107540000Y-40000000D03*
%TD*%
D14*
%TO.C,R1*%
X114000000Y-50080000D03*
D15*
X114000000Y-39920000D03*
%TD*%
D11*
%TO.C,BT1*%
X98540000Y-32000000D03*
D12*
X96000000Y-32000000D03*
%TD*%
D14*
%TO.C,C2*%
X97000000Y-49750000D03*
D15*
X97000000Y-42250000D03*
%TD*%
M02*
